<?xml version="1.0" encoding="utf-8"?>
<!-- Generator: Adobe Illustrator 24.1.3, SVG Export Plug-In . SVG Version: 6.00 Build 0)  -->
<svg version="1.1" id="Layer_1" xmlns="http://www.w3.org/2000/svg" xmlns:xlink="http://www.w3.org/1999/xlink" x="0px" y="0px"
	 viewBox="0 0 345.9 345.8" style="enable-background:new 0 0 345.9 345.8;" xml:space="preserve">
<style type="text/css">
	.st0{fill:#C2DAED;stroke:#FFFFFF;stroke-width:0.9921;stroke-miterlimit:10;}
	.st1{fill:#DBB9B4;stroke:#FFFFFF;stroke-width:0.9921;stroke-miterlimit:10;}
	.st2{fill:#1F1E21;}
	.st3{fill:#DBE1BC;stroke:#FFFFFF;stroke-width:0.9921;stroke-miterlimit:10;}
	.st4{fill:#EBC9DB;stroke:#FFFFFF;stroke-width:0.9921;stroke-miterlimit:10;}
	.st5{fill:#EFD8B7;stroke:#FFFFFF;stroke-width:0.9921;stroke-miterlimit:10;}
	.st6{fill:#C8BAD6;stroke:#FFFFFF;stroke-width:0.9921;stroke-miterlimit:10;}
	.st7{fill:#D0E5E4;stroke:#FFFFFF;stroke-width:0.9921;stroke-miterlimit:10;}
	.st8{fill:#F0E696;stroke:#FFFFFF;stroke-width:0.9921;stroke-miterlimit:10;}
	.st9{enable-background:new    ;}
</style>
<g id="Background">
</g>
<g id="examples_and_grid_measure">
</g>
<g id="Guides">
</g>
<g id="box_x5F_designs">
</g>
<g id="instruction_x5F_text">
</g>
<g id="policy">
</g>
<g id="narrative">
</g>
<g id="logitudinal">
</g>
<g id="ethnography">
</g>
<g id="experimental_x5F_design">
</g>
<g id="case_x5F_studies">
</g>
<g id="action_x5F_research">
</g>
<g>
	<g>
		<g>
			<path class="st0" d="M173,172.5L37.4,66.6C70.8,23.9,118.7,0.5,173,0.5V172.5z"/>
		</g>
	</g>
	<g>
		<g>
			<path class="st1" d="M173,172.5L5.3,211.2C-6.8,158.4,4,109.4,37.4,66.6L173,172.5z"/>
		</g>
	</g>
	<g>
		<path class="st2" d="M19.3,139.3v-10h1.4l5.3,7.9v-7.9h1.3v10h-1.4l-5.3-7.9v7.9H19.3z"/>
		<path class="st2" d="M34,138.4c-0.5,0.4-0.9,0.7-1.3,0.8s-0.9,0.2-1.4,0.2c-0.8,0-1.4-0.2-1.8-0.6s-0.6-0.9-0.6-1.5
			c0-0.4,0.1-0.7,0.2-1s0.4-0.5,0.6-0.7s0.6-0.3,0.9-0.4c0.2-0.1,0.6-0.1,1.1-0.2c1-0.1,1.7-0.3,2.2-0.4c0-0.2,0-0.3,0-0.3
			c0-0.5-0.1-0.9-0.3-1.1c-0.3-0.3-0.8-0.4-1.4-0.4c-0.6,0-1,0.1-1.3,0.3s-0.5,0.6-0.6,1.1l-1.2-0.2c0.1-0.5,0.3-0.9,0.5-1.2
			s0.6-0.6,1.1-0.7s1-0.3,1.6-0.3s1.1,0.1,1.5,0.2s0.7,0.3,0.8,0.6s0.3,0.5,0.4,0.8c0,0.2,0.1,0.6,0.1,1.1v1.6c0,1.1,0,1.9,0.1,2.2
			s0.2,0.6,0.3,0.9h-1.3C34.1,139.1,34,138.8,34,138.4z M33.9,135.7c-0.5,0.2-1.1,0.3-2,0.5c-0.5,0.1-0.9,0.1-1.1,0.2
			s-0.4,0.2-0.5,0.4s-0.2,0.4-0.2,0.6c0,0.3,0.1,0.6,0.4,0.8s0.6,0.3,1.1,0.3c0.5,0,0.9-0.1,1.3-0.3s0.6-0.5,0.8-0.9
			c0.1-0.3,0.2-0.7,0.2-1.2V135.7L33.9,135.7z"/>
		<path class="st2" d="M37,139.3V132h1.1v1.1c0.3-0.5,0.5-0.9,0.8-1s0.5-0.2,0.8-0.2c0.4,0,0.8,0.1,1.3,0.4l-0.4,1.1
			c-0.3-0.2-0.6-0.3-0.9-0.3c-0.3,0-0.5,0.1-0.7,0.2s-0.4,0.4-0.5,0.7c-0.1,0.4-0.2,0.9-0.2,1.4v3.8L37,139.3L37,139.3z"/>
		<path class="st2" d="M41.7,139.3V132h1.1v1.1c0.3-0.5,0.5-0.9,0.8-1s0.5-0.2,0.8-0.2c0.4,0,0.8,0.1,1.3,0.4l-0.4,1.1
			c-0.3-0.2-0.6-0.3-0.9-0.3c-0.3,0-0.5,0.1-0.7,0.2s-0.4,0.4-0.5,0.7c-0.1,0.4-0.2,0.9-0.2,1.4v3.8L41.7,139.3L41.7,139.3z"/>
		<path class="st2" d="M51.1,138.4c-0.5,0.4-0.9,0.7-1.3,0.8s-0.9,0.2-1.4,0.2c-0.8,0-1.4-0.2-1.8-0.6S46,138,46,137.4
			c0-0.4,0.1-0.7,0.2-1s0.4-0.5,0.6-0.7s0.6-0.3,0.9-0.4c0.2-0.1,0.6-0.1,1.1-0.2c1-0.1,1.7-0.3,2.2-0.4c0-0.2,0-0.3,0-0.3
			c0-0.5-0.1-0.9-0.3-1.1c-0.3-0.3-0.8-0.4-1.4-0.4c-0.6,0-1,0.1-1.3,0.3s-0.5,0.6-0.6,1.1l-1.2-0.2c0.1-0.5,0.3-0.9,0.5-1.2
			s0.6-0.6,1.1-0.7s1-0.3,1.7-0.3c0.6,0,1.1,0.1,1.5,0.2s0.7,0.3,0.8,0.6s0.3,0.5,0.4,0.8c0,0.2,0.1,0.6,0.1,1.1v1.6
			c0,1.1,0,1.9,0.1,2.2s0.2,0.6,0.3,0.9h-1.3C51.2,139.1,51.1,138.8,51.1,138.4z M51,135.7c-0.5,0.2-1.1,0.3-2,0.5
			c-0.5,0.1-0.9,0.1-1.1,0.2s-0.4,0.2-0.5,0.4s-0.2,0.4-0.2,0.6c0,0.3,0.1,0.6,0.4,0.8s0.6,0.3,1.1,0.3s0.9-0.1,1.3-0.3
			s0.6-0.5,0.8-0.9c0.1-0.3,0.2-0.7,0.2-1.2V135.7L51,135.7z"/>
		<path class="st2" d="M56.8,138.2l0.2,1.1c-0.3,0.1-0.7,0.1-0.9,0.1c-0.5,0-0.8-0.1-1-0.2s-0.4-0.3-0.5-0.6s-0.2-0.7-0.2-1.4V133
			h-0.9v-1h0.9v-1.8l1.2-0.7v2.5h1.2v1h-1.2v4.2c0,0.4,0,0.6,0.1,0.7s0.1,0.2,0.2,0.2s0.2,0.1,0.4,0.1
			C56.4,138.2,56.6,138.2,56.8,138.2z"/>
		<path class="st2" d="M58,130.7v-1.4h1.2v1.4H58z M58,139.3V132h1.2v7.3H58z"/>
		<path class="st2" d="M63.2,139.3l-2.8-7.3h1.3l1.6,4.4c0.2,0.5,0.3,1,0.5,1.5c0.1-0.4,0.3-0.8,0.5-1.4l1.6-4.4h1.3l-2.8,7.3
			L63.2,139.3L63.2,139.3z"/>
		<path class="st2" d="M73.1,137l1.3,0.2c-0.2,0.7-0.6,1.3-1.1,1.7s-1.2,0.6-2.1,0.6c-1.1,0-1.9-0.3-2.5-1s-0.9-1.6-0.9-2.8
			s0.3-2.2,0.9-2.8s1.4-1,2.4-1s1.8,0.3,2.4,1s0.9,1.6,0.9,2.8c0,0.1,0,0.2,0,0.3H69c0.1,0.8,0.3,1.4,0.7,1.8s0.9,0.6,1.5,0.6
			c0.4,0,0.8-0.1,1.2-0.4S72.9,137.5,73.1,137z M69.1,135h4.1c-0.1-0.6-0.2-1.1-0.5-1.4c-0.4-0.5-0.9-0.7-1.5-0.7s-1,0.2-1.4,0.6
			S69.1,134.3,69.1,135z"/>
		<path class="st2" d="M84.6,138.4c-0.5,0.4-0.9,0.7-1.3,0.8s-0.9,0.2-1.4,0.2c-0.8,0-1.4-0.2-1.8-0.6s-0.6-0.9-0.6-1.5
			c0-0.4,0.1-0.7,0.2-1s0.4-0.5,0.6-0.7s0.6-0.3,0.9-0.4c0.2-0.1,0.6-0.1,1.1-0.2c1-0.1,1.7-0.3,2.2-0.4c0-0.2,0-0.3,0-0.3
			c0-0.5-0.1-0.9-0.3-1.1c-0.3-0.3-0.8-0.4-1.4-0.4s-1,0.1-1.3,0.3s-0.5,0.6-0.6,1.1l-1.2-0.2c0.1-0.5,0.3-0.9,0.5-1.2
			s0.6-0.6,1.1-0.7s1-0.3,1.7-0.3c0.6,0,1.1,0.1,1.5,0.2s0.7,0.3,0.8,0.6s0.3,0.5,0.4,0.8c0,0.2,0.1,0.6,0.1,1.1v1.6
			c0,1.1,0,1.9,0.1,2.2s0.2,0.6,0.3,0.9h-1.3C84.7,139.1,84.6,138.8,84.6,138.4z M84.5,135.7c-0.4,0.2-1.1,0.3-2,0.5
			c-0.5,0.1-0.9,0.1-1.1,0.2s-0.4,0.2-0.5,0.4s-0.2,0.4-0.2,0.6c0,0.3,0.1,0.6,0.4,0.8s0.6,0.3,1.1,0.3s0.9-0.1,1.3-0.3
			s0.6-0.5,0.8-0.9c0.1-0.3,0.2-0.7,0.2-1.2L84.5,135.7L84.5,135.7z"/>
		<path class="st2" d="M87.6,139.3V132h1.1v1c0.5-0.8,1.3-1.2,2.3-1.2c0.4,0,0.8,0.1,1.2,0.2s0.6,0.4,0.8,0.6s0.3,0.6,0.4,0.9
			c0.1,0.2,0.1,0.6,0.1,1.2v4.5h-1.2v-4.4c0-0.5-0.1-0.9-0.1-1.1s-0.3-0.4-0.5-0.6s-0.5-0.2-0.9-0.2c-0.5,0-1,0.2-1.4,0.5
			s-0.6,1-0.6,1.9v4L87.6,139.3L87.6,139.3z"/>
		<path class="st2" d="M100.1,139.3v-0.9c-0.5,0.7-1.1,1.1-2,1.1c-0.6,0-1.1-0.2-1.6-0.5s-0.9-0.8-1.1-1.3s-0.4-1.2-0.4-2
			c0-0.7,0.1-1.4,0.4-2s0.6-1,1.1-1.4s1-0.5,1.6-0.5c0.4,0,0.8,0.1,1.2,0.3s0.6,0.4,0.8,0.7v-3.6h1.2v10L100.1,139.3L100.1,139.3z
			 M96.2,135.7c0,0.9,0.2,1.6,0.6,2.1s0.8,0.7,1.4,0.7s1-0.2,1.4-0.7s0.6-1.1,0.6-2c0-1-0.2-1.7-0.6-2.2s-0.8-0.7-1.4-0.7
			s-1,0.2-1.4,0.7S96.2,134.7,96.2,135.7z"/>
		<path class="st2" d="M24.6,155h-1.1v-10h1.2v3.6c0.5-0.6,1.2-1,2-1c0.5,0,0.9,0.1,1.3,0.3s0.7,0.4,1,0.8s0.5,0.7,0.6,1.2
			s0.2,0.9,0.2,1.5c0,1.2-0.3,2.2-0.9,2.9s-1.4,1-2.2,1s-1.5-0.4-2-1.1C24.6,154.1,24.6,155,24.6,155z M24.5,151.3
			c0,0.9,0.1,1.5,0.4,1.9c0.4,0.6,0.9,0.9,1.6,0.9c0.5,0,1-0.2,1.4-0.7s0.6-1.2,0.6-2.1c0-0.9-0.2-1.6-0.6-2.1s-0.8-0.7-1.4-0.7
			c-0.5,0-1,0.2-1.4,0.7S24.5,150.4,24.5,151.3z"/>
		<path class="st2" d="M31.2,146.4V145h1.2v1.4H31.2z M31.2,155v-7.3h1.2v7.3H31.2z"/>
		<path class="st2" d="M33.9,151.3c0-1.3,0.4-2.3,1.1-3c0.6-0.5,1.4-0.8,2.3-0.8c1,0,1.8,0.3,2.5,1s1,1.6,1,2.7
			c0,0.9-0.1,1.7-0.4,2.2s-0.7,0.9-1.2,1.2s-1.1,0.4-1.8,0.4c-1,0-1.8-0.3-2.5-1S33.9,152.6,33.9,151.3z M35.1,151.3
			c0,0.9,0.2,1.6,0.6,2.1s0.9,0.7,1.5,0.7s1.1-0.2,1.5-0.7s0.6-1.2,0.6-2.1c0-0.9-0.2-1.6-0.6-2s-0.9-0.7-1.5-0.7s-1.1,0.2-1.5,0.7
			S35.1,150.4,35.1,151.3z"/>
		<path class="st2" d="M41.9,155.6l1.2,0.2c0,0.4,0.2,0.6,0.4,0.8c0.3,0.2,0.7,0.3,1.2,0.3c0.6,0,1-0.1,1.3-0.3s0.5-0.6,0.6-1
			c0.1-0.2,0.1-0.8,0.1-1.6c-0.5,0.6-1.2,0.9-2,0.9c-1,0-1.8-0.4-2.3-1.1s-0.8-1.6-0.8-2.6c0-0.7,0.1-1.3,0.4-1.9s0.6-1,1.1-1.4
			s1-0.5,1.7-0.5c0.9,0,1.6,0.4,2.1,1v-0.9H48v6.3c0,1.1-0.1,1.9-0.3,2.4s-0.6,0.8-1.1,1.1s-1.1,0.4-1.8,0.4c-0.9,0-1.6-0.2-2.1-0.6
			S41.9,156.4,41.9,155.6z M42.9,151.2c0,0.9,0.2,1.6,0.6,2.1s0.8,0.7,1.4,0.7c0.6,0,1-0.2,1.4-0.6s0.6-1.1,0.6-2.1
			c0-0.9-0.2-1.6-0.6-2s-0.9-0.7-1.4-0.7s-1,0.2-1.4,0.7S42.9,150.3,42.9,151.2z"/>
		<path class="st2" d="M49.9,155v-7.3H51v1.1c0.3-0.5,0.5-0.9,0.8-1s0.5-0.2,0.8-0.2c0.4,0,0.8,0.1,1.3,0.4l-0.4,1.1
			c-0.3-0.2-0.6-0.3-0.9-0.3c-0.3,0-0.5,0.1-0.7,0.2s-0.4,0.4-0.5,0.7c-0.1,0.4-0.2,0.9-0.2,1.4v3.8L49.9,155L49.9,155z"/>
		<path class="st2" d="M59.3,154.1c-0.5,0.4-0.9,0.7-1.3,0.8s-0.9,0.2-1.4,0.2c-0.8,0-1.4-0.2-1.8-0.6s-0.6-0.9-0.6-1.5
			c0-0.4,0.1-0.7,0.2-1s0.4-0.5,0.6-0.7s0.6-0.3,0.9-0.4c0.2-0.1,0.6-0.1,1.1-0.2c1-0.1,1.7-0.3,2.2-0.4c0-0.2,0-0.3,0-0.3
			c0-0.5-0.1-0.9-0.3-1.1c-0.3-0.3-0.8-0.4-1.4-0.4c-0.6,0-1,0.1-1.3,0.3s-0.5,0.6-0.6,1.1l-1.2-0.2c0.1-0.5,0.3-0.9,0.5-1.2
			s0.6-0.6,1.1-0.7s1-0.3,1.7-0.3c0.6,0,1.1,0.1,1.5,0.2s0.7,0.3,0.8,0.6s0.3,0.5,0.4,0.8c0,0.2,0.1,0.6,0.1,1.1v1.6
			c0,1.1,0,1.9,0.1,2.2s0.2,0.6,0.3,0.9h-1.3C59.4,154.7,59.3,154.4,59.3,154.1z M59.2,151.3c-0.5,0.2-1.1,0.3-2,0.5
			c-0.5,0.1-0.9,0.1-1.1,0.2s-0.4,0.2-0.5,0.4s-0.2,0.4-0.2,0.6c0,0.3,0.1,0.6,0.4,0.8s0.6,0.3,1.1,0.3s0.9-0.1,1.3-0.3
			s0.6-0.5,0.8-0.9c0.1-0.3,0.2-0.7,0.2-1.2V151.3L59.2,151.3z"/>
		<path class="st2" d="M62.3,157.8v-10.1h1.1v0.9c0.3-0.4,0.6-0.6,0.9-0.8c0.3-0.2,0.7-0.3,1.2-0.3c0.6,0,1.2,0.2,1.6,0.5
			s0.8,0.8,1.1,1.4s0.4,1.2,0.4,1.9s-0.1,1.4-0.4,2s-0.7,1.1-1.2,1.4s-1,0.5-1.6,0.5c-0.4,0-0.8-0.1-1.1-0.3s-0.6-0.4-0.8-0.7v3.5
			L62.3,157.8L62.3,157.8z M63.5,151.4c0,0.9,0.2,1.6,0.6,2.1c0.4,0.4,0.8,0.7,1.4,0.7s1-0.2,1.4-0.7s0.6-1.2,0.6-2.1
			c0-0.9-0.2-1.6-0.6-2.1s-0.8-0.7-1.4-0.7c-0.5,0-1,0.2-1.4,0.7C63.7,149.7,63.5,150.4,63.5,151.4z"/>
		<path class="st2" d="M70.1,155v-10h1.2v3.6c0.6-0.7,1.3-1,2.2-1c0.5,0,1,0.1,1.4,0.3s0.7,0.5,0.8,0.9s0.3,0.9,0.3,1.6v4.6h-1.2
			v-4.6c0-0.6-0.1-1.1-0.4-1.3s-0.6-0.4-1.1-0.4c-0.4,0-0.7,0.1-1,0.3s-0.6,0.4-0.7,0.8s-0.2,0.8-0.2,1.3v4L70.1,155L70.1,155z"/>
		<path class="st2" d="M77.9,146.4V145h1.2v1.4H77.9z M77.9,155v-7.3h1.2v7.3H77.9z"/>
		<path class="st2" d="M85.8,152.3l1.2,0.2c-0.1,0.8-0.5,1.5-1,2s-1.2,0.7-2,0.7c-1,0-1.8-0.3-2.4-1s-0.9-1.6-0.9-2.8
			c0-0.8,0.1-1.5,0.4-2.1s0.7-1,1.2-1.3s1.1-0.4,1.7-0.4c0.8,0,1.4,0.2,1.9,0.6s0.8,1,1,1.7l-1.2,0.2c-0.1-0.5-0.3-0.9-0.6-1.1
			s-0.6-0.4-1.1-0.4c-0.6,0-1.1,0.2-1.5,0.7s-0.6,1.1-0.6,2.1s0.2,1.7,0.6,2.1s0.9,0.7,1.5,0.7c0.5,0,0.9-0.1,1.2-0.4
			S85.7,152.9,85.8,152.3z"/>
		<path class="st2" d="M92.8,154.1c-0.5,0.4-0.9,0.7-1.3,0.8s-0.9,0.2-1.4,0.2c-0.8,0-1.4-0.2-1.8-0.6s-0.6-0.9-0.6-1.5
			c0-0.4,0.1-0.7,0.2-1s0.4-0.5,0.6-0.7s0.6-0.3,0.9-0.4c0.2-0.1,0.6-0.1,1.1-0.2c1-0.1,1.7-0.3,2.2-0.4c0-0.2,0-0.3,0-0.3
			c0-0.5-0.1-0.9-0.3-1.1c-0.3-0.3-0.8-0.4-1.4-0.4s-1,0.1-1.3,0.3s-0.5,0.6-0.6,1.1l-1.2-0.2c0.1-0.5,0.3-0.9,0.5-1.2
			s0.6-0.6,1.1-0.7s1-0.3,1.7-0.3c0.6,0,1.1,0.1,1.5,0.2s0.7,0.3,0.8,0.6s0.3,0.5,0.4,0.8c0,0.2,0.1,0.6,0.1,1.1v1.6
			c0,1.1,0,1.9,0.1,2.2s0.2,0.6,0.3,0.9H93C92.9,154.7,92.8,154.4,92.8,154.1z M92.7,151.3c-0.4,0.2-1.1,0.3-2,0.5
			c-0.5,0.1-0.9,0.1-1.1,0.2s-0.4,0.2-0.5,0.4s-0.2,0.4-0.2,0.6c0,0.3,0.1,0.6,0.4,0.8s0.6,0.3,1.1,0.3s0.9-0.1,1.3-0.3
			s0.6-0.5,0.8-0.9c0.1-0.3,0.2-0.7,0.2-1.2L92.7,151.3L92.7,151.3z"/>
		<path class="st2" d="M95.8,155v-10H97v10H95.8z"/>
		<path class="st2" d="M29.3,169.7c-0.5,0.4-0.9,0.7-1.3,0.8s-0.9,0.2-1.4,0.2c-0.8,0-1.4-0.2-1.8-0.6s-0.6-0.9-0.6-1.5
			c0-0.4,0.1-0.7,0.2-1s0.4-0.5,0.6-0.7s0.6-0.3,0.9-0.4c0.2-0.1,0.6-0.1,1.1-0.2c1-0.1,1.7-0.3,2.2-0.4c0-0.2,0-0.3,0-0.3
			c0-0.5-0.1-0.9-0.4-1.1c-0.3-0.3-0.8-0.4-1.4-0.4s-1,0.1-1.3,0.3s-0.5,0.6-0.6,1.1l-1.2-0.2c0.1-0.5,0.3-0.9,0.5-1.2
			s0.6-0.6,1.1-0.7s1-0.3,1.6-0.3s1.1,0.1,1.5,0.2s0.7,0.3,0.9,0.6s0.3,0.5,0.4,0.8c0,0.2,0.1,0.6,0.1,1.1v1.6c0,1.1,0,1.9,0.1,2.2
			s0.2,0.6,0.3,0.9h-1.3C29.4,170.4,29.4,170.1,29.3,169.7z M29.2,167c-0.5,0.2-1.1,0.3-2,0.5c-0.5,0.1-0.9,0.1-1.1,0.2
			s-0.4,0.2-0.5,0.4s-0.2,0.4-0.2,0.6c0,0.3,0.1,0.6,0.4,0.8s0.6,0.3,1.1,0.3s0.9-0.1,1.3-0.3s0.6-0.5,0.8-0.9
			c0.1-0.3,0.2-0.7,0.2-1.2L29.2,167L29.2,167z"/>
		<path class="st2" d="M32.4,173.4v-10h1.1v0.9c0.3-0.4,0.6-0.6,0.9-0.8s0.7-0.3,1.2-0.3c0.6,0,1.2,0.2,1.6,0.5s0.8,0.8,1.1,1.4
			s0.4,1.2,0.4,1.9s-0.1,1.4-0.4,2s-0.7,1.1-1.2,1.4s-1,0.5-1.6,0.5c-0.4,0-0.8-0.1-1.1-0.3s-0.6-0.4-0.8-0.7v3.5L32.4,173.4
			L32.4,173.4z M33.5,167c0,0.9,0.2,1.6,0.6,2.1s0.8,0.7,1.4,0.7c0.5,0,1-0.2,1.4-0.7s0.6-1.2,0.6-2.1c0-0.9-0.2-1.6-0.6-2.1
			s-0.8-0.7-1.4-0.7c-0.5,0-1,0.2-1.4,0.7S33.5,166.1,33.5,167z"/>
		<path class="st2" d="M40.2,173.4v-10h1.1v0.9c0.3-0.4,0.6-0.6,0.9-0.8s0.7-0.3,1.2-0.3c0.6,0,1.2,0.2,1.6,0.5s0.8,0.8,1.1,1.4
			s0.4,1.2,0.4,1.9s-0.1,1.4-0.4,2s-0.7,1.1-1.2,1.4s-1,0.5-1.6,0.5c-0.4,0-0.8-0.1-1.1-0.3s-0.6-0.4-0.8-0.7v3.5L40.2,173.4
			L40.2,173.4z M41.3,167c0,0.9,0.2,1.6,0.6,2.1s0.8,0.7,1.4,0.7c0.5,0,1-0.2,1.4-0.7s0.6-1.2,0.6-2.1c0-0.9-0.2-1.6-0.6-2.1
			s-0.8-0.7-1.4-0.7c-0.5,0-1,0.2-1.4,0.7S41.3,166.1,41.3,167z"/>
		<path class="st2" d="M47.9,170.6v-7.3H49v1.1c0.3-0.5,0.5-0.9,0.8-1s0.5-0.2,0.8-0.2c0.4,0,0.8,0.1,1.3,0.4l-0.4,1.1
			c-0.3-0.2-0.6-0.3-0.9-0.3c-0.3,0-0.5,0.1-0.7,0.2s-0.4,0.4-0.5,0.7c-0.1,0.4-0.2,0.9-0.2,1.4v3.8L47.9,170.6L47.9,170.6z"/>
		<path class="st2" d="M52.2,167c0-1.3,0.4-2.3,1.1-3c0.6-0.5,1.4-0.8,2.3-0.8c1,0,1.8,0.3,2.5,1s1,1.6,1,2.7c0,0.9-0.1,1.7-0.4,2.2
			s-0.7,0.9-1.2,1.2s-1.1,0.4-1.8,0.4c-1,0-1.8-0.3-2.5-1S52.2,168.2,52.2,167z M53.4,167c0,0.9,0.2,1.6,0.6,2.1s0.9,0.7,1.5,0.7
			s1.1-0.2,1.5-0.7s0.6-1.2,0.6-2.1c0-0.9-0.2-1.6-0.6-2s-0.9-0.7-1.5-0.7s-1.1,0.2-1.5,0.7S53.4,166.1,53.4,167z"/>
		<path class="st2" d="M65.1,169.7c-0.5,0.4-0.9,0.7-1.3,0.8c-0.4,0.2-0.9,0.2-1.4,0.2c-0.8,0-1.4-0.2-1.8-0.6s-0.6-0.9-0.6-1.5
			c0-0.4,0.1-0.7,0.2-1s0.4-0.5,0.6-0.7s0.6-0.3,0.9-0.4c0.2-0.1,0.6-0.1,1.1-0.2c1-0.1,1.7-0.3,2.2-0.4c0-0.2,0-0.3,0-0.3
			c0-0.5-0.1-0.9-0.3-1.1c-0.3-0.3-0.8-0.4-1.4-0.4c-0.6,0-1,0.1-1.3,0.3s-0.5,0.6-0.6,1.1l-1.2-0.2c0.1-0.5,0.3-0.9,0.5-1.2
			s0.6-0.6,1.1-0.7s1-0.3,1.7-0.3c0.6,0,1.1,0.1,1.5,0.2s0.7,0.3,0.8,0.6s0.3,0.5,0.4,0.8c0,0.2,0.1,0.6,0.1,1.1v1.6
			c0,1.1,0,1.9,0.1,2.2s0.2,0.6,0.3,0.9h-1.3C65.2,170.4,65.2,170.1,65.1,169.7z M65,167c-0.4,0.2-1.1,0.3-2,0.5
			c-0.5,0.1-0.9,0.1-1.1,0.2s-0.4,0.2-0.5,0.4s-0.2,0.4-0.2,0.6c0,0.3,0.1,0.6,0.4,0.8s0.6,0.3,1.1,0.3s0.9-0.1,1.3-0.3
			c0.4-0.2,0.6-0.5,0.8-0.9c0.1-0.3,0.2-0.7,0.2-1.2V167L65,167z"/>
		<path class="st2" d="M72.9,168l1.2,0.2c-0.1,0.8-0.5,1.5-1,2s-1.2,0.7-2,0.7c-1,0-1.8-0.3-2.4-1s-0.9-1.6-0.9-2.8
			c0-0.8,0.1-1.5,0.4-2.1s0.7-1,1.2-1.3s1.1-0.4,1.7-0.4c0.8,0,1.4,0.2,1.9,0.6s0.8,1,1,1.7l-1.2,0.2c-0.1-0.5-0.3-0.9-0.6-1.1
			s-0.6-0.4-1.1-0.4c-0.6,0-1.1,0.2-1.5,0.7s-0.6,1.1-0.6,2c0,1,0.2,1.7,0.6,2.1s0.9,0.7,1.5,0.7c0.5,0,0.9-0.1,1.2-0.4
			S72.8,168.6,72.9,168z"/>
		<path class="st2" d="M75.2,170.6v-10h1.2v3.6c0.6-0.7,1.3-1,2.2-1c0.5,0,1,0.1,1.4,0.3s0.7,0.5,0.8,0.9s0.3,0.9,0.3,1.6v4.6h-1.2
			V166c0-0.6-0.1-1.1-0.4-1.3s-0.6-0.4-1.1-0.4c-0.4,0-0.7,0.1-1,0.3s-0.6,0.4-0.7,0.8s-0.2,0.8-0.2,1.3v4L75.2,170.6L75.2,170.6z"
			/>
		<path class="st2" d="M87.9,168.3l1.3,0.2c-0.2,0.7-0.6,1.3-1.1,1.7s-1.2,0.6-2.1,0.6c-1.1,0-1.9-0.3-2.5-1s-0.9-1.6-0.9-2.8
			s0.3-2.2,0.9-2.8s1.4-1,2.4-1s1.8,0.3,2.4,1s0.9,1.6,0.9,2.8c0,0.1,0,0.2,0,0.3h-5.4c0.1,0.8,0.3,1.4,0.7,1.8s0.9,0.6,1.5,0.6
			c0.4,0,0.8-0.1,1.2-0.4S87.8,168.8,87.9,168.3z M83.9,166.3H88c-0.1-0.6-0.2-1.1-0.5-1.4c-0.4-0.5-0.9-0.7-1.5-0.7s-1,0.2-1.4,0.6
			S83.9,165.7,83.9,166.3z"/>
		<path class="st2" d="M90.3,168.5l1.2-0.2c0.1,0.5,0.3,0.9,0.6,1.1s0.8,0.4,1.3,0.4s1-0.1,1.3-0.4s0.4-0.5,0.4-0.8
			s-0.1-0.5-0.4-0.7c-0.2-0.1-0.6-0.2-1.3-0.4c-0.9-0.2-1.5-0.4-1.9-0.6s-0.6-0.4-0.8-0.7s-0.3-0.6-0.3-1c0-0.3,0.1-0.6,0.2-0.9
			s0.3-0.5,0.6-0.7c0.2-0.1,0.4-0.3,0.8-0.4s0.7-0.1,1.1-0.1c0.6,0,1.1,0.1,1.5,0.2s0.8,0.4,0.9,0.7s0.3,0.7,0.4,1.1l-1.2,0.2
			c-0.1-0.4-0.2-0.7-0.5-0.9s-0.6-0.3-1.1-0.3c-0.6,0-1,0.1-1.2,0.3s-0.4,0.4-0.4,0.7c0,0.2,0.1,0.3,0.2,0.4
			c0.1,0.1,0.3,0.2,0.5,0.3c0.1,0.1,0.5,0.1,1.1,0.3c0.9,0.2,1.5,0.4,1.8,0.6s0.6,0.4,0.8,0.6s0.3,0.6,0.3,1.1
			c0,0.4-0.1,0.8-0.4,1.2s-0.6,0.6-1,0.8s-1,0.3-1.5,0.3c-0.9,0-1.7-0.2-2.2-0.6S90.4,169.2,90.3,168.5z"/>
	</g>
	<g>
		<g>
			<path class="st3" d="M173,172.5l-72.7,155.9C51.1,305.5,17.6,264,5.4,211.2L173,172.5z"/>
		</g>
	</g>
	<g>
		<path class="st2" d="M45,229.4v-10h1.3v8.8h4.9v1.2H45L45,229.4z"/>
		<path class="st2" d="M52.3,225.8c0-1.3,0.4-2.3,1.1-3c0.6-0.5,1.4-0.8,2.3-0.8c1,0,1.8,0.3,2.5,1s1,1.6,1,2.7
			c0,0.9-0.1,1.7-0.4,2.2s-0.7,0.9-1.2,1.2s-1.1,0.4-1.8,0.4c-1,0-1.8-0.3-2.5-1S52.3,227,52.3,225.8z M53.5,225.8
			c0,0.9,0.2,1.6,0.6,2.1s0.9,0.7,1.5,0.7s1.1-0.2,1.5-0.7s0.6-1.2,0.6-2.1c0-0.9-0.2-1.6-0.6-2s-0.9-0.7-1.5-0.7s-1.1,0.2-1.5,0.7
			S53.5,224.8,53.5,225.8z"/>
		<path class="st2" d="M60.5,229.4v-7.3h1.1v1c0.5-0.8,1.3-1.2,2.3-1.2c0.4,0,0.8,0.1,1.2,0.2s0.6,0.4,0.8,0.6s0.3,0.6,0.4,0.9
			c0.1,0.2,0.1,0.6,0.1,1.2v4.5h-1.2V225c0-0.5-0.1-0.9-0.1-1.1s-0.3-0.4-0.5-0.6s-0.5-0.2-0.9-0.2c-0.5,0-1,0.2-1.4,0.5
			s-0.6,1-0.6,1.9v4L60.5,229.4L60.5,229.4z"/>
		<path class="st2" d="M68.1,230l1.2,0.2c0.1,0.4,0.2,0.6,0.4,0.8c0.3,0.2,0.7,0.3,1.2,0.3c0.6,0,1-0.1,1.3-0.3s0.5-0.6,0.6-1
			c0.1-0.2,0.1-0.8,0.1-1.6c-0.5,0.6-1.2,0.9-2,0.9c-1,0-1.8-0.4-2.3-1.1s-0.8-1.6-0.8-2.6c0-0.7,0.1-1.3,0.4-1.9s0.6-1,1.1-1.4
			s1-0.5,1.7-0.5c0.9,0,1.6,0.4,2.1,1v-0.9h1.1v6.3c0,1.1-0.1,1.9-0.3,2.4s-0.6,0.8-1.1,1.1s-1.1,0.4-1.8,0.4
			c-0.9,0-1.6-0.2-2.1-0.6S68.1,230.8,68.1,230z M69.1,225.6c0,0.9,0.2,1.6,0.6,2.1s0.8,0.7,1.4,0.7s1-0.2,1.4-0.6s0.6-1.1,0.6-2.1
			c0-0.9-0.2-1.6-0.6-2s-0.9-0.7-1.4-0.7c-0.6,0-1,0.2-1.4,0.7S69.1,224.8,69.1,225.6z"/>
		<path class="st2" d="M76.1,220.8v-1.4h1.2v1.4H76.1z M76.1,229.4v-7.3h1.2v7.3H76.1z"/>
		<path class="st2" d="M81.9,228.3l0.2,1.1c-0.3,0.1-0.7,0.1-0.9,0.1c-0.4,0-0.8-0.1-1-0.2s-0.4-0.3-0.5-0.6s-0.2-0.7-0.2-1.4v-4.2
			h-0.9v-1h0.9v-1.8l1.2-0.7v2.5h1.2v1h-1.2v4.2c0,0.4,0,0.6,0.1,0.7s0.1,0.2,0.2,0.2s0.2,0.1,0.4,0.1
			C81.5,228.3,81.7,228.3,81.9,228.3z"/>
		<path class="st2" d="M87.8,229.4v-1.1c-0.6,0.8-1.3,1.2-2.3,1.2c-0.4,0-0.8-0.1-1.2-0.2s-0.7-0.4-0.8-0.6s-0.3-0.6-0.4-0.9
			c-0.1-0.2-0.1-0.6-0.1-1.1v-4.5h1.2v4c0,0.6,0,1.1,0.1,1.3c0.1,0.3,0.2,0.6,0.5,0.8s0.6,0.3,0.9,0.3s0.7-0.1,1-0.3
			s0.6-0.4,0.7-0.8s0.2-0.8,0.2-1.4v-3.9H89v7.3L87.8,229.4L87.8,229.4z"/>
		<path class="st2" d="M95.6,229.4v-0.9c-0.5,0.7-1.1,1.1-2,1.1c-0.6,0-1.1-0.2-1.6-0.5s-0.9-0.8-1.1-1.3s-0.4-1.2-0.4-2
			c0-0.7,0.1-1.4,0.4-2s0.6-1,1.1-1.4s1-0.5,1.6-0.5c0.4,0,0.8,0.1,1.2,0.3s0.6,0.4,0.8,0.7v-3.6h1.2v10L95.6,229.4L95.6,229.4z
			 M91.7,225.8c0,0.9,0.2,1.6,0.6,2.1s0.8,0.7,1.4,0.7s1-0.2,1.4-0.7s0.6-1.1,0.6-2c0-1-0.2-1.7-0.6-2.2s-0.8-0.7-1.4-0.7
			s-1,0.2-1.4,0.7S91.7,224.8,91.7,225.8z"/>
		<path class="st2" d="M98.7,220.8v-1.4h1.2v1.4H98.7z M98.7,229.4v-7.3h1.2v7.3H98.7z"/>
		<path class="st2" d="M101.8,229.4v-7.3h1.1v1c0.5-0.8,1.3-1.2,2.3-1.2c0.4,0,0.8,0.1,1.2,0.2s0.6,0.4,0.8,0.6s0.3,0.6,0.4,0.9
			c0.1,0.2,0.1,0.6,0.1,1.2v4.5h-1.2V225c0-0.5-0.1-0.9-0.1-1.1s-0.3-0.4-0.5-0.6s-0.5-0.2-0.9-0.2c-0.5,0-1,0.2-1.4,0.5
			s-0.6,1-0.6,1.9v4L101.8,229.4L101.8,229.4z"/>
		<path class="st2" d="M114.3,228.5c-0.5,0.4-0.9,0.7-1.3,0.8s-0.9,0.2-1.4,0.2c-0.8,0-1.4-0.2-1.8-0.6s-0.6-0.9-0.6-1.5
			c0-0.4,0.1-0.7,0.2-1s0.4-0.5,0.6-0.7s0.6-0.3,0.9-0.4c0.2-0.1,0.6-0.1,1.1-0.2c1-0.1,1.7-0.3,2.2-0.4c0-0.2,0-0.3,0-0.3
			c0-0.5-0.1-0.9-0.3-1.1c-0.3-0.3-0.8-0.4-1.4-0.4s-1,0.1-1.3,0.3s-0.5,0.6-0.6,1.1l-1.2-0.2c0.1-0.5,0.3-0.9,0.5-1.2
			s0.6-0.6,1.1-0.7s1-0.3,1.7-0.3c0.6,0,1.1,0.1,1.5,0.2s0.7,0.3,0.8,0.6s0.3,0.5,0.4,0.8c0,0.2,0.1,0.6,0.1,1.1v1.6
			c0,1.1,0,1.9,0.1,2.2s0.2,0.6,0.3,0.9h-1.3C114.4,229.1,114.3,228.8,114.3,228.5z M114.2,225.8c-0.4,0.2-1.1,0.3-2,0.5
			c-0.5,0.1-0.9,0.1-1.1,0.2s-0.4,0.2-0.5,0.4s-0.2,0.4-0.2,0.6c0,0.3,0.1,0.6,0.4,0.8s0.6,0.3,1.1,0.3s0.9-0.1,1.3-0.3
			s0.6-0.5,0.8-0.9c0.1-0.3,0.2-0.7,0.2-1.2L114.2,225.8L114.2,225.8z"/>
		<path class="st2" d="M117.3,229.4v-10h1.2v10H117.3z"/>
		<path class="st2" d="M46.4,242.9l1.2-0.2c0.1,0.5,0.3,0.9,0.6,1.1s0.8,0.4,1.3,0.4s1-0.1,1.3-0.4s0.4-0.5,0.4-0.8
			s-0.1-0.5-0.4-0.7c-0.2-0.1-0.6-0.2-1.3-0.4c-0.9-0.2-1.5-0.4-1.9-0.6s-0.6-0.4-0.8-0.7s-0.3-0.6-0.3-1c0-0.3,0.1-0.6,0.2-0.9
			s0.3-0.5,0.6-0.7c0.2-0.1,0.5-0.3,0.8-0.4s0.7-0.1,1.1-0.1c0.6,0,1.1,0.1,1.5,0.2s0.8,0.4,1,0.7s0.3,0.7,0.4,1.1l-1.2,0.2
			c0-0.4-0.2-0.7-0.5-0.9s-0.6-0.3-1.1-0.3c-0.6,0-1,0.1-1.2,0.3s-0.4,0.4-0.4,0.7c0,0.2,0,0.3,0.2,0.4c0.1,0.1,0.3,0.2,0.5,0.3
			c0.1,0.1,0.5,0.1,1.1,0.3c0.9,0.2,1.5,0.4,1.8,0.6s0.6,0.4,0.8,0.6s0.3,0.6,0.3,1.1c0,0.4-0.1,0.8-0.4,1.2s-0.6,0.6-1,0.8
			s-1,0.3-1.5,0.3c-0.9,0-1.7-0.2-2.2-0.6S46.5,243.7,46.4,242.9z"/>
		<path class="st2" d="M56.6,244l0.2,1.1c-0.3,0.1-0.7,0.1-0.9,0.1c-0.5,0-0.8-0.1-1-0.2s-0.4-0.3-0.5-0.6s-0.2-0.7-0.2-1.4v-4.2
			h-0.9v-1h0.9V236l1.2-0.7v2.5h1.2v1h-1.2v4.2c0,0.4,0,0.6,0.1,0.7s0.1,0.2,0.2,0.2s0.2,0.1,0.4,0.1C56.2,244,56.4,244,56.6,244z"
			/>
		<path class="st2" d="M62.5,245.1V244c-0.6,0.8-1.3,1.2-2.3,1.2c-0.4,0-0.8-0.1-1.2-0.2s-0.7-0.4-0.8-0.6s-0.3-0.6-0.4-0.9
			c0-0.2-0.1-0.6-0.1-1.1v-4.5H59v4c0,0.6,0,1.1,0.1,1.3c0.1,0.3,0.2,0.6,0.5,0.8s0.6,0.3,0.9,0.3s0.7-0.1,1-0.3s0.5-0.4,0.7-0.8
			s0.2-0.8,0.2-1.4v-3.9h1.2v7.3L62.5,245.1L62.5,245.1z"/>
		<path class="st2" d="M70.3,245.1v-0.9c-0.5,0.7-1.1,1.1-2,1.1c-0.6,0-1.1-0.2-1.6-0.5s-0.9-0.8-1.1-1.3s-0.4-1.2-0.4-2
			c0-0.7,0.1-1.4,0.4-2s0.6-1,1.1-1.4s1-0.5,1.6-0.5c0.4,0,0.8,0.1,1.2,0.3s0.6,0.4,0.8,0.7V235h1.2v10L70.3,245.1L70.3,245.1z
			 M66.4,241.4c0,0.9,0.2,1.6,0.6,2.1s0.8,0.7,1.4,0.7s1-0.2,1.4-0.7s0.6-1.1,0.6-2c0-1-0.2-1.7-0.6-2.2s-0.8-0.7-1.4-0.7
			s-1,0.2-1.4,0.7S66.4,240.5,66.4,241.4z"/>
		<path class="st2" d="M73.4,236.4V235h1.2v1.4H73.4z M73.4,245.1v-7.3h1.2v7.3H73.4z"/>
		<path class="st2" d="M81.4,242.7l1.3,0.2c-0.2,0.7-0.6,1.3-1.1,1.7s-1.2,0.6-2.1,0.6c-1.1,0-1.9-0.3-2.5-1s-0.9-1.6-0.9-2.8
			s0.3-2.2,0.9-2.8s1.4-1,2.4-1s1.8,0.3,2.4,1s0.9,1.6,0.9,2.8c0,0.1,0,0.2,0,0.3h-5.4c0.1,0.8,0.3,1.4,0.7,1.8s0.9,0.6,1.5,0.6
			c0.4,0,0.8-0.1,1.2-0.4S81.2,243.2,81.4,242.7z M77.4,240.7h4.1c-0.1-0.6-0.2-1.1-0.5-1.4c-0.4-0.5-0.9-0.7-1.5-0.7
			s-1,0.2-1.4,0.6S77.4,240.1,77.4,240.7z"/>
		<path class="st2" d="M83.8,242.9l1.2-0.2c0.1,0.5,0.3,0.9,0.6,1.1s0.8,0.4,1.3,0.4s1-0.1,1.3-0.4s0.4-0.5,0.4-0.8
			s-0.1-0.5-0.4-0.7c-0.2-0.1-0.6-0.2-1.3-0.4c-0.9-0.2-1.5-0.4-1.9-0.6s-0.6-0.4-0.8-0.7s-0.3-0.6-0.3-1c0-0.3,0.1-0.6,0.2-0.9
			s0.3-0.5,0.6-0.7c0.2-0.1,0.4-0.3,0.8-0.4s0.7-0.1,1.1-0.1c0.6,0,1.1,0.1,1.5,0.2s0.8,0.4,0.9,0.7s0.3,0.7,0.4,1.1l-1.2,0.2
			c-0.1-0.4-0.2-0.7-0.5-0.9s-0.6-0.3-1.1-0.3c-0.6,0-1,0.1-1.2,0.3s-0.4,0.4-0.4,0.7c0,0.2,0.1,0.3,0.2,0.4
			c0.1,0.1,0.3,0.2,0.5,0.3c0.1,0.1,0.5,0.1,1.1,0.3c0.9,0.2,1.5,0.4,1.8,0.6s0.6,0.4,0.8,0.6s0.3,0.6,0.3,1.1
			c0,0.4-0.1,0.8-0.4,1.2s-0.6,0.6-1,0.8s-1,0.3-1.5,0.3c-0.9,0-1.7-0.2-2.2-0.6S83.9,243.7,83.8,242.9z"/>
		<path class="st2" d="M99.9,244.2c-0.5,0.4-0.9,0.7-1.3,0.8s-0.9,0.2-1.4,0.2c-0.8,0-1.4-0.2-1.8-0.6s-0.6-0.9-0.6-1.5
			c0-0.4,0.1-0.7,0.2-1s0.4-0.5,0.6-0.7s0.6-0.3,0.9-0.4c0.2-0.1,0.6-0.1,1.1-0.2c1-0.1,1.7-0.3,2.2-0.4c0-0.2,0-0.3,0-0.3
			c0-0.5-0.1-0.9-0.3-1.1c-0.3-0.3-0.8-0.4-1.4-0.4s-1,0.1-1.3,0.3s-0.5,0.6-0.6,1.1l-1.2-0.2c0.1-0.5,0.3-0.9,0.5-1.2
			s0.6-0.6,1.1-0.7s1-0.3,1.7-0.3c0.6,0,1.1,0.1,1.5,0.2s0.7,0.3,0.8,0.6s0.3,0.5,0.4,0.8c0,0.2,0.1,0.6,0.1,1.1v1.6
			c0,1.1,0,1.9,0.1,2.2s0.2,0.6,0.3,0.9h-1.3C100,244.8,99.9,244.5,99.9,244.2z M99.8,241.4c-0.4,0.2-1.1,0.3-2,0.5
			c-0.5,0.1-0.9,0.1-1.1,0.2s-0.4,0.2-0.5,0.4s-0.2,0.4-0.2,0.6c0,0.3,0.1,0.6,0.4,0.8s0.6,0.3,1.1,0.3s0.9-0.1,1.3-0.3
			s0.6-0.5,0.8-0.9c0.1-0.3,0.2-0.7,0.2-1.2L99.8,241.4L99.8,241.4z"/>
		<path class="st2" d="M102.9,245.1v-7.3h1.1v1c0.5-0.8,1.3-1.2,2.3-1.2c0.4,0,0.8,0.1,1.2,0.2s0.6,0.4,0.8,0.6s0.3,0.6,0.4,0.9
			c0.1,0.2,0.1,0.6,0.1,1.2v4.5h-1.2v-4.4c0-0.5-0.1-0.9-0.1-1.1s-0.3-0.4-0.5-0.6s-0.5-0.2-0.9-0.2c-0.5,0-1,0.2-1.4,0.5
			s-0.6,1-0.6,1.9v4L102.9,245.1L102.9,245.1z"/>
		<path class="st2" d="M115.4,245.1v-0.9c-0.5,0.7-1.1,1.1-2,1.1c-0.6,0-1.1-0.2-1.6-0.5s-0.9-0.8-1.1-1.3s-0.4-1.2-0.4-2
			c0-0.7,0.1-1.4,0.4-2s0.6-1,1.1-1.4s1-0.5,1.6-0.5c0.4,0,0.8,0.1,1.2,0.3s0.6,0.4,0.8,0.7V235h1.2v10L115.4,245.1L115.4,245.1z
			 M111.5,241.4c0,0.9,0.2,1.6,0.6,2.1s0.8,0.7,1.4,0.7s1-0.2,1.4-0.7s0.6-1.1,0.6-2c0-1-0.2-1.7-0.6-2.2s-0.8-0.7-1.4-0.7
			s-1,0.2-1.4,0.7S111.5,240.5,111.5,241.4z"/>
		<path class="st2" d="M58.1,258.5l1.2-0.2c0.1,0.5,0.3,0.9,0.6,1.1s0.8,0.4,1.3,0.4s1-0.1,1.3-0.4s0.4-0.5,0.4-0.8
			s-0.1-0.5-0.4-0.7c-0.2-0.1-0.6-0.2-1.3-0.4c-0.9-0.2-1.5-0.4-1.9-0.6s-0.6-0.4-0.8-0.7s-0.3-0.6-0.3-1c0-0.3,0.1-0.6,0.2-0.9
			s0.3-0.5,0.6-0.7c0.2-0.1,0.5-0.3,0.8-0.4s0.7-0.1,1.1-0.1c0.6,0,1.1,0.1,1.5,0.2s0.8,0.4,1,0.7s0.3,0.7,0.4,1.1l-1.2,0.2
			c0-0.4-0.2-0.7-0.5-0.9s-0.6-0.3-1.1-0.3c-0.6,0-1,0.1-1.2,0.3s-0.4,0.4-0.4,0.7c0,0.2,0,0.3,0.2,0.4c0.1,0.1,0.3,0.2,0.5,0.3
			c0.1,0.1,0.5,0.2,1.1,0.3c0.9,0.2,1.5,0.4,1.8,0.6s0.6,0.4,0.8,0.6c0.2,0.3,0.3,0.6,0.3,1s-0.1,0.8-0.4,1.2
			c-0.2,0.4-0.6,0.6-1,0.8s-1,0.3-1.5,0.3c-0.9,0-1.7-0.2-2.2-0.6S58.2,259.3,58.1,258.5z"/>
		<path class="st2" d="M70.3,260.7v-1.1c-0.6,0.8-1.3,1.2-2.3,1.2c-0.4,0-0.8-0.1-1.2-0.2s-0.7-0.4-0.8-0.6s-0.3-0.5-0.4-0.9
			c-0.1-0.2-0.1-0.6-0.1-1.1v-4.5h1.2v4c0,0.6,0,1.1,0.1,1.3c0.1,0.3,0.2,0.6,0.5,0.8s0.6,0.3,0.9,0.3s0.7-0.1,1-0.3
			s0.6-0.5,0.7-0.8s0.2-0.8,0.2-1.4v-3.9h1.2v7.3L70.3,260.7L70.3,260.7z"/>
		<path class="st2" d="M73.4,260.7v-7.3h1.1v1.1c0.3-0.5,0.5-0.9,0.8-1s0.5-0.2,0.8-0.2c0.4,0,0.8,0.1,1.3,0.4l-0.4,1.1
			c-0.3-0.2-0.6-0.3-0.9-0.3s-0.5,0.1-0.7,0.2s-0.4,0.4-0.5,0.7c-0.1,0.4-0.2,0.9-0.2,1.4v3.8L73.4,260.7L73.4,260.7z"/>
		<path class="st2" d="M80.1,260.7l-2.8-7.3h1.3l1.6,4.3c0.2,0.5,0.3,1,0.5,1.5c0.1-0.4,0.3-0.8,0.5-1.4l1.6-4.4h1.3l-2.8,7.3H80.1z
			"/>
		<path class="st2" d="M90,258.4l1.3,0.2c-0.2,0.7-0.6,1.3-1.1,1.7s-1.2,0.6-2.1,0.6c-1.1,0-1.9-0.3-2.5-1s-0.9-1.6-0.9-2.8
			c0-1.2,0.3-2.2,0.9-2.8s1.4-1,2.4-1s1.8,0.3,2.4,1s0.9,1.6,0.9,2.8c0,0.1,0,0.2,0,0.3h-5.4c0.1,0.8,0.3,1.4,0.7,1.8
			s0.9,0.6,1.5,0.6c0.4,0,0.8-0.1,1.2-0.4S89.8,258.9,90,258.4z M86,256.4h4c-0.1-0.6-0.2-1.1-0.5-1.4c-0.4-0.5-0.9-0.7-1.5-0.7
			s-1,0.2-1.4,0.6S86,255.8,86,256.4z"/>
		<path class="st2" d="M92.8,263.5l-0.1-1.2c0.3,0.1,0.5,0.1,0.7,0.1c0.3,0,0.5,0,0.7-0.1s0.3-0.2,0.4-0.4c0.1-0.1,0.2-0.4,0.4-0.9
			c0-0.1,0.1-0.2,0.1-0.3l-2.8-7.3h1.3l1.5,4.2c0.2,0.5,0.4,1.1,0.5,1.7c0.1-0.6,0.3-1.1,0.5-1.6l1.6-4.2h1.2l-2.8,7.4
			c-0.3,0.8-0.5,1.4-0.7,1.6c-0.2,0.4-0.5,0.7-0.8,0.9s-0.6,0.3-1,0.3C93.3,263.7,93.1,263.6,92.8,263.5z"/>
		<path class="st2" d="M99.3,258.5l1.2-0.2c0.1,0.5,0.3,0.9,0.6,1.1s0.8,0.4,1.3,0.4s1-0.1,1.3-0.4s0.4-0.5,0.4-0.8
			s-0.1-0.5-0.4-0.7c-0.2-0.1-0.6-0.2-1.3-0.4c-0.9-0.2-1.5-0.4-1.9-0.6s-0.6-0.4-0.8-0.7s-0.3-0.6-0.3-1c0-0.3,0.1-0.6,0.2-0.9
			s0.3-0.5,0.6-0.7c0.2-0.1,0.4-0.3,0.8-0.4s0.7-0.1,1.1-0.1c0.6,0,1.1,0.1,1.5,0.2s0.8,0.4,0.9,0.7s0.3,0.7,0.4,1.1l-1.2,0.2
			c-0.1-0.4-0.2-0.7-0.5-0.9s-0.6-0.3-1.1-0.3c-0.6,0-1,0.1-1.2,0.3s-0.4,0.4-0.4,0.7c0,0.2,0.1,0.3,0.2,0.4
			c0.1,0.1,0.3,0.2,0.5,0.3c0.1,0.1,0.5,0.2,1.1,0.3c0.9,0.2,1.5,0.4,1.8,0.6s0.6,0.4,0.8,0.6s0.3,0.6,0.3,1s-0.1,0.8-0.4,1.2
			s-0.6,0.6-1,0.8s-1,0.3-1.5,0.3c-0.9,0-1.7-0.2-2.2-0.6S99.5,259.3,99.3,258.5z"/>
	</g>
	<g>
		<g>
			<path class="st4" d="M173,172.5l75.4,154.6c-48.8,23.8-98.9,24.2-148.1,1.3L173,172.5z"/>
		</g>
	</g>
	<g>
		<path class="st2" d="M136.4,297.9v-10h7.2v1.2h-5.9v3.1h5.5v1.2h-5.5v3.4h6.1v1.2h-7.4L136.4,297.9L136.4,297.9z"/>
		<path class="st2" d="M148.2,296.8l0.2,1.1c-0.4,0.1-0.7,0.1-0.9,0.1c-0.4,0-0.8-0.1-1-0.2s-0.4-0.3-0.5-0.6s-0.1-0.7-0.1-1.5v-4.2
			H145v-1h0.9v-1.8l1.2-0.7v2.5h1.2v1H147v4.2c0,0.4,0,0.6,0.1,0.7s0.1,0.2,0.2,0.2s0.2,0.1,0.4,0.1
			C147.8,296.8,148,296.8,148.2,296.8z"/>
		<path class="st2" d="M149.4,297.9v-10h1.2v3.6c0.6-0.7,1.3-1,2.2-1c0.5,0,1,0.1,1.4,0.3s0.7,0.5,0.9,0.9s0.3,0.9,0.3,1.6v4.6h-1.2
			v-4.6c0-0.6-0.1-1.1-0.4-1.3s-0.6-0.4-1.1-0.4c-0.4,0-0.7,0.1-1,0.3s-0.6,0.5-0.7,0.8s-0.2,0.8-0.2,1.3v4L149.4,297.9L149.4,297.9
			z"/>
		<path class="st2" d="M157.2,297.9v-7.3h1.1v1c0.5-0.8,1.3-1.2,2.3-1.2c0.4,0,0.8,0.1,1.2,0.2s0.6,0.4,0.8,0.6s0.3,0.6,0.4,0.9
			c0.1,0.2,0.1,0.6,0.1,1.2v4.5h-1.2v-4.4c0-0.5-0.1-0.9-0.1-1.1s-0.3-0.5-0.5-0.6s-0.5-0.2-0.9-0.2c-0.5,0-1,0.2-1.4,0.5
			s-0.6,1-0.6,1.9v4H157.2L157.2,297.9z"/>
		<path class="st2" d="M164.5,294.2c0-1.3,0.4-2.3,1.1-3c0.6-0.5,1.4-0.8,2.3-0.8c1,0,1.8,0.3,2.4,1s0.9,1.6,0.9,2.7
			c0,0.9-0.1,1.7-0.4,2.2s-0.7,1-1.2,1.2s-1.1,0.4-1.8,0.4c-1,0-1.8-0.3-2.5-1S164.5,295.5,164.5,294.2z M165.8,294.2
			c0,0.9,0.2,1.6,0.6,2.1s0.9,0.7,1.5,0.7s1.1-0.2,1.5-0.7s0.6-1.2,0.6-2.1s-0.2-1.6-0.6-2s-0.9-0.7-1.5-0.7s-1.1,0.2-1.5,0.7
			S165.8,293.3,165.8,294.2z"/>
		<path class="st2" d="M172.6,298.5l1.2,0.2c0.1,0.4,0.2,0.6,0.4,0.8c0.3,0.2,0.7,0.3,1.2,0.3c0.6,0,1-0.1,1.3-0.3s0.5-0.5,0.6-1
			c0.1-0.2,0.1-0.8,0.1-1.6c-0.5,0.6-1.2,1-2,1c-1,0-1.8-0.4-2.3-1.1s-0.8-1.6-0.8-2.6c0-0.7,0.1-1.3,0.4-1.9s0.6-1,1.1-1.4
			s1-0.5,1.7-0.5c0.9,0,1.6,0.4,2.1,1v-0.9h1.1v6.3c0,1.1-0.1,1.9-0.4,2.4s-0.6,0.8-1.1,1.1s-1.1,0.4-1.8,0.4
			c-0.9,0-1.6-0.2-2.1-0.6S172.5,299.2,172.6,298.5z M173.6,294.1c0,1,0.2,1.6,0.6,2.1s0.9,0.7,1.4,0.7c0.6,0,1-0.2,1.4-0.6
			s0.6-1.1,0.6-2s-0.2-1.6-0.6-2s-0.9-0.7-1.4-0.7c-0.6,0-1,0.2-1.4,0.7S173.6,293.2,173.6,294.1z"/>
		<path class="st2" d="M180.6,297.9v-7.3h1.1v1.1c0.3-0.5,0.5-0.9,0.8-1s0.5-0.2,0.8-0.2c0.4,0,0.8,0.1,1.3,0.4l-0.4,1.1
			c-0.3-0.2-0.6-0.3-0.9-0.3c-0.3,0-0.5,0.1-0.7,0.2s-0.4,0.4-0.5,0.7c-0.1,0.4-0.2,0.9-0.2,1.4v3.8L180.6,297.9L180.6,297.9z"/>
		<path class="st2" d="M190,297c-0.5,0.4-0.9,0.7-1.3,0.8s-0.9,0.2-1.4,0.2c-0.8,0-1.4-0.2-1.8-0.6s-0.6-0.9-0.6-1.5
			c0-0.4,0.1-0.7,0.2-1s0.4-0.5,0.6-0.7s0.6-0.3,0.9-0.4c0.2-0.1,0.6-0.1,1.1-0.2c1-0.1,1.7-0.3,2.2-0.4c0-0.2,0-0.3,0-0.3
			c0-0.5-0.1-0.9-0.4-1.1c-0.3-0.3-0.8-0.4-1.4-0.4c-0.6,0-1,0.1-1.3,0.3s-0.5,0.6-0.6,1.1l-1.2-0.2c0.1-0.5,0.3-0.9,0.5-1.2
			s0.6-0.6,1.1-0.7s1-0.3,1.6-0.3s1.1,0.1,1.5,0.2s0.7,0.3,0.9,0.5s0.3,0.5,0.4,0.8c0,0.2,0.1,0.6,0.1,1.1v1.6c0,1.1,0,1.9,0.1,2.2
			s0.2,0.6,0.3,0.9h-1.3C190.1,297.6,190,297.3,190,297z M189.9,294.2c-0.4,0.2-1.1,0.3-2,0.5c-0.5,0.1-0.9,0.1-1.1,0.2
			s-0.4,0.2-0.5,0.4s-0.2,0.4-0.2,0.6c0,0.3,0.1,0.6,0.4,0.8s0.6,0.3,1.1,0.3s0.9-0.1,1.3-0.3s0.6-0.5,0.8-0.9
			c0.1-0.3,0.2-0.7,0.2-1.2V294.2L189.9,294.2z"/>
		<path class="st2" d="M193,300.6v-10h1.1v0.9c0.3-0.4,0.6-0.6,0.9-0.8s0.7-0.3,1.2-0.3c0.6,0,1.2,0.2,1.6,0.5s0.8,0.8,1.1,1.4
			s0.4,1.2,0.4,1.9c0,0.7-0.1,1.4-0.4,2s-0.6,1-1.2,1.4s-1,0.5-1.6,0.5c-0.4,0-0.8-0.1-1.1-0.3s-0.6-0.4-0.8-0.7v3.5H193L193,300.6z
			 M194.1,294.3c0,0.9,0.2,1.6,0.6,2.1s0.8,0.7,1.4,0.7c0.6,0,1-0.2,1.4-0.7s0.6-1.2,0.6-2.1s-0.2-1.6-0.6-2.1s-0.8-0.7-1.4-0.7
			c-0.5,0-1,0.2-1.4,0.7S194.1,293.3,194.1,294.3z"/>
		<path class="st2" d="M200.8,297.9v-10h1.2v3.6c0.6-0.7,1.3-1,2.2-1c0.5,0,1,0.1,1.4,0.3s0.7,0.5,0.9,0.9s0.3,0.9,0.3,1.6v4.6h-1.2
			v-4.6c0-0.6-0.1-1.1-0.4-1.3s-0.6-0.4-1.1-0.4c-0.4,0-0.7,0.1-1,0.3s-0.6,0.5-0.7,0.8s-0.2,0.8-0.2,1.3v4L200.8,297.9L200.8,297.9
			z"/>
		<path class="st2" d="M208.5,300.7l-0.1-1.2c0.3,0.1,0.5,0.1,0.7,0.1c0.3,0,0.5,0,0.7-0.1s0.3-0.2,0.4-0.4c0.1-0.1,0.2-0.4,0.4-0.9
			c0-0.1,0.1-0.2,0.1-0.3l-2.8-7.3h1.3l1.5,4.2c0.2,0.5,0.4,1.1,0.5,1.7c0.1-0.6,0.3-1.1,0.5-1.6l1.6-4.2h1.2l-2.8,7.4
			c-0.3,0.8-0.5,1.4-0.7,1.6c-0.2,0.4-0.5,0.7-0.8,0.9s-0.6,0.3-1,0.3C209.1,300.8,208.8,300.8,208.5,300.7z"/>
	</g>
	<g>
		<g>
			<path class="st5" d="M173,172.5l168.3,35.8c-11.3,53.1-44.1,95.1-92.9,118.8L173,172.5z"/>
		</g>
	</g>
	<path class="st2" d="M229.7,237.2v-10h7.2v1.2H231v3.1h5.5v1.2H231v3.4h6.1v1.2L229.7,237.2L229.7,237.2z"/>
	<path class="st2" d="M238.1,237.2l2.6-3.8l-2.4-3.5h1.5l1.1,1.7c0.2,0.3,0.4,0.6,0.5,0.8c0.2-0.3,0.4-0.6,0.6-0.8l1.2-1.7h1.5
		l-2.5,3.4l2.7,3.8h-1.5l-1.5-2.3l-0.4-0.6l-1.9,2.9L238.1,237.2L238.1,237.2z"/>
	<path class="st2" d="M245.9,240v-10h1.1v0.9c0.3-0.4,0.6-0.6,0.9-0.8s0.7-0.3,1.2-0.3c0.6,0,1.2,0.2,1.6,0.5s0.8,0.8,1.1,1.4
		s0.4,1.2,0.4,1.9s-0.1,1.4-0.4,2c-0.3,0.6-0.6,1.1-1.2,1.4c-0.5,0.3-1,0.5-1.6,0.5c-0.4,0-0.8-0.1-1.1-0.3s-0.6-0.4-0.8-0.7v3.5
		L245.9,240L245.9,240z M247,233.6c0,0.9,0.2,1.6,0.6,2.1s0.8,0.7,1.4,0.7c0.6,0,1-0.2,1.4-0.7s0.6-1.2,0.6-2.1
		c0-0.9-0.2-1.6-0.6-2.1s-0.8-0.7-1.4-0.7c-0.5,0-1,0.2-1.4,0.7C247.2,232,247,232.7,247,233.6z"/>
	<path class="st2" d="M258.6,234.9l1.3,0.2c-0.2,0.7-0.6,1.3-1.1,1.7s-1.2,0.6-2.1,0.6c-1.1,0-1.9-0.3-2.5-1
		c-0.6-0.6-0.9-1.6-0.9-2.8s0.3-2.2,0.9-2.8s1.4-1,2.5-1c1,0,1.8,0.3,2.4,1s0.9,1.6,0.9,2.8c0,0.1,0,0.2,0,0.3h-5.4
		c0.1,0.8,0.3,1.4,0.7,1.8s0.9,0.6,1.5,0.6c0.5,0,0.8-0.1,1.2-0.4S258.4,235.4,258.6,234.9z M254.6,232.9h4c0-0.6-0.2-1.1-0.5-1.4
		c-0.4-0.5-0.9-0.7-1.5-0.7s-1,0.2-1.4,0.6C254.8,231.8,254.6,232.3,254.6,232.9z"/>
	<path class="st2" d="M261.4,237.2V230h1.1v1.1c0.3-0.5,0.5-0.9,0.8-1c0.2-0.2,0.5-0.2,0.8-0.2c0.4,0,0.8,0.1,1.3,0.4l-0.4,1.1
		c-0.3-0.2-0.6-0.3-0.9-0.3s-0.5,0.1-0.7,0.2s-0.4,0.4-0.5,0.7c-0.1,0.4-0.2,0.9-0.2,1.4v3.8H261.4L261.4,237.2z"/>
	<path class="st2" d="M266.1,228.6v-1.4h1.2v1.4H266.1z M266.1,237.2V230h1.2v7.3h-1.2V237.2z"/>
	<path class="st2" d="M269.2,237.2V230h1.1v1c0.2-0.4,0.5-0.6,0.9-0.9s0.8-0.3,1.3-0.3s1,0.1,1.3,0.3s0.6,0.5,0.7,0.9
		c0.6-0.9,1.3-1.3,2.2-1.3c0.7,0,1.3,0.2,1.7,0.6s0.6,1,0.6,1.8v5h-1.2v-4.6c0-0.5,0-0.9-0.1-1.1c-0.1-0.2-0.2-0.4-0.4-0.5
		s-0.5-0.2-0.7-0.2c-0.5,0-0.9,0.2-1.3,0.5s-0.5,0.9-0.5,1.6v4.2h-1.2v-4.7c0-0.6-0.1-1-0.3-1.2s-0.5-0.4-1-0.4
		c-0.4,0-0.7,0.1-1,0.3s-0.5,0.4-0.6,0.8s-0.2,0.9-0.2,1.5v3.8L269.2,237.2L269.2,237.2z"/>
	<path class="st2" d="M285.9,234.9l1.3,0.2c-0.2,0.7-0.6,1.3-1.1,1.7s-1.2,0.6-2.1,0.6c-1.1,0-1.9-0.3-2.5-1
		c-0.6-0.6-0.9-1.6-0.9-2.8s0.3-2.2,0.9-2.8s1.4-1,2.5-1c1,0,1.8,0.3,2.4,1s0.9,1.6,0.9,2.8c0,0.1,0,0.2,0,0.3h-5.4
		c0,0.8,0.3,1.4,0.7,1.8s0.9,0.6,1.5,0.6c0.5,0,0.8-0.1,1.2-0.4S285.7,235.4,285.9,234.9z M281.8,232.9h4c0-0.6-0.2-1.1-0.5-1.4
		c-0.4-0.5-0.9-0.7-1.5-0.7s-1,0.2-1.4,0.6C282.1,231.8,281.9,232.3,281.8,232.9z"/>
	<path class="st2" d="M288.7,237.2V230h1.1v1c0.5-0.8,1.3-1.2,2.3-1.2c0.4,0,0.8,0.1,1.2,0.2s0.6,0.4,0.8,0.6s0.3,0.6,0.4,0.9
		c0,0.2,0.1,0.6,0.1,1.2v4.5h-1.2v-4.4c0-0.5,0-0.9-0.1-1.1s-0.3-0.4-0.5-0.6c-0.2-0.1-0.5-0.2-0.9-0.2c-0.5,0-1,0.2-1.4,0.5
		s-0.6,1-0.6,1.9v4L288.7,237.2L288.7,237.2z"/>
	<path class="st2" d="M299.1,236.1l0.2,1.1c-0.4,0.1-0.7,0.1-0.9,0.1c-0.5,0-0.8-0.1-1-0.2s-0.4-0.3-0.5-0.6s-0.1-0.7-0.1-1.4v-4.2
		h-0.9v-1h0.9v-1.8l1.2-0.7v2.5h1.2v1H298v4.2c0,0.4,0,0.6,0.1,0.7c0,0.1,0.1,0.2,0.2,0.2c0.1,0.1,0.2,0.1,0.4,0.1
		C298.7,236.2,298.9,236.2,299.1,236.1z"/>
	<path class="st2" d="M305.1,236.3c-0.5,0.4-0.9,0.7-1.3,0.8c-0.4,0.2-0.9,0.2-1.4,0.2c-0.8,0-1.4-0.2-1.8-0.6s-0.6-0.9-0.6-1.5
		c0-0.4,0.1-0.7,0.2-1c0.2-0.3,0.4-0.5,0.6-0.7c0.3-0.2,0.6-0.3,0.9-0.4c0.2-0.1,0.6-0.1,1.1-0.2c1-0.1,1.7-0.3,2.2-0.4
		c0-0.2,0-0.3,0-0.3c0-0.5-0.1-0.9-0.4-1.1c-0.3-0.3-0.8-0.4-1.4-0.4s-1,0.1-1.3,0.3s-0.5,0.6-0.6,1.1l-1.2-0.2
		c0.1-0.5,0.3-0.9,0.5-1.2s0.6-0.6,1.1-0.7s1-0.3,1.6-0.3s1.1,0.1,1.5,0.2s0.7,0.3,0.9,0.6s0.3,0.5,0.4,0.8c0,0.2,0.1,0.6,0.1,1.1
		v1.6c0,1.1,0,1.9,0.1,2.2s0.2,0.6,0.3,0.9h-1.3C305.2,237,305.1,236.7,305.1,236.3z M305,233.6c-0.5,0.2-1.1,0.3-2,0.5
		c-0.5,0.1-0.9,0.1-1.1,0.2s-0.4,0.2-0.5,0.4s-0.2,0.4-0.2,0.6c0,0.3,0.1,0.6,0.4,0.8s0.6,0.3,1.1,0.3s0.9-0.1,1.3-0.3
		s0.6-0.5,0.8-0.9c0.1-0.3,0.2-0.7,0.2-1.2L305,233.6L305,233.6z"/>
	<path class="st2" d="M308.1,237.2v-10h1.2v10H308.1L308.1,237.2z"/>
	<path class="st2" d="M254.5,252.9V252c-0.5,0.7-1.1,1.1-2,1.1c-0.6,0-1.1-0.2-1.6-0.5s-0.9-0.8-1.1-1.3c-0.3-0.6-0.4-1.2-0.4-2
		c0-0.7,0.1-1.4,0.4-2s0.6-1,1.1-1.4s1-0.5,1.6-0.5c0.4,0,0.8,0.1,1.2,0.3s0.6,0.4,0.8,0.7v-3.6h1.2v10L254.5,252.9L254.5,252.9z
		 M250.6,249.3c0,0.9,0.2,1.6,0.6,2.1s0.9,0.7,1.4,0.7s1-0.2,1.4-0.7c0.4-0.4,0.6-1.1,0.6-2c0-1-0.2-1.7-0.6-2.2s-0.9-0.7-1.4-0.7
		c-0.6,0-1,0.2-1.4,0.7C250.8,247.6,250.6,248.3,250.6,249.3z"/>
	<path class="st2" d="M262.5,250.6l1.3,0.2c-0.2,0.7-0.6,1.3-1.1,1.7s-1.2,0.6-2.1,0.6c-1.1,0-1.9-0.3-2.5-1
		c-0.6-0.6-0.9-1.6-0.9-2.8s0.3-2.2,0.9-2.8s1.4-1,2.5-1c1,0,1.8,0.3,2.4,1s0.9,1.6,0.9,2.8c0,0.1,0,0.2,0,0.3h-5.4
		c0,0.8,0.3,1.4,0.7,1.8s0.9,0.6,1.5,0.6c0.5,0,0.8-0.1,1.2-0.4S262.3,251.1,262.5,250.6z M258.5,248.6h4c0-0.6-0.2-1.1-0.5-1.4
		c-0.4-0.5-0.9-0.7-1.5-0.7s-1,0.2-1.4,0.6C258.7,247.4,258.5,247.9,258.5,248.6z"/>
	<path class="st2" d="M264.8,250.7l1.2-0.2c0.1,0.5,0.3,0.9,0.6,1.1s0.8,0.4,1.3,0.4c0.6,0,1-0.1,1.3-0.4s0.4-0.5,0.4-0.8
		s-0.1-0.5-0.4-0.7c-0.2-0.1-0.6-0.2-1.3-0.4c-0.9-0.2-1.5-0.4-1.9-0.6s-0.6-0.4-0.8-0.7c-0.2-0.3-0.3-0.6-0.3-1
		c0-0.3,0.1-0.6,0.2-0.9s0.4-0.5,0.6-0.7c0.2-0.1,0.5-0.3,0.8-0.4s0.7-0.1,1.1-0.1c0.6,0,1.1,0.1,1.5,0.2c0.4,0.2,0.8,0.4,1,0.7
		s0.4,0.7,0.4,1.1l-1.2,0.2c0-0.4-0.2-0.7-0.5-0.9s-0.6-0.3-1.1-0.3c-0.6,0-1,0.1-1.2,0.3s-0.4,0.4-0.4,0.7c0,0.2,0,0.3,0.1,0.4
		c0.1,0.1,0.3,0.2,0.5,0.3c0.1,0.1,0.5,0.1,1.1,0.3c0.9,0.2,1.5,0.4,1.8,0.6c0.3,0.1,0.6,0.4,0.8,0.6s0.3,0.6,0.3,1.1
		c0,0.4-0.1,0.8-0.4,1.2s-0.6,0.6-1,0.8s-1,0.3-1.5,0.3c-0.9,0-1.7-0.2-2.2-0.6C265.3,252.1,265,251.5,264.8,250.7z"/>
	<path class="st2" d="M272.3,244.3v-1.4h1.2v1.4H272.3z M272.3,252.9v-7.3h1.2v7.3H272.3z"/>
	<path class="st2" d="M275.2,253.5l1.2,0.2c0,0.4,0.2,0.6,0.4,0.8c0.3,0.2,0.7,0.3,1.2,0.3c0.6,0,1-0.1,1.3-0.3s0.5-0.6,0.6-1
		c0.1-0.2,0.1-0.8,0.1-1.6c-0.5,0.6-1.2,0.9-2,0.9c-1,0-1.8-0.4-2.3-1.1s-0.8-1.6-0.8-2.6c0-0.7,0.1-1.3,0.4-1.9s0.6-1,1.1-1.4
		s1-0.5,1.7-0.5c0.9,0,1.6,0.4,2.1,1v-0.9h1.1v6.3c0,1.1-0.1,1.9-0.4,2.4s-0.6,0.8-1.1,1.1s-1.1,0.4-1.8,0.4c-0.9,0-1.6-0.2-2.1-0.6
		S275.2,254.3,275.2,253.5z M276.2,249.1c0,0.9,0.2,1.6,0.6,2.1s0.9,0.7,1.4,0.7s1-0.2,1.4-0.6s0.6-1.1,0.6-2.1c0-0.9-0.2-1.6-0.6-2
		s-0.9-0.7-1.4-0.7s-1,0.2-1.4,0.7S276.2,248.2,276.2,249.1z"/>
	<path class="st2" d="M283.2,252.9v-7.3h1.1v1c0.5-0.8,1.3-1.2,2.3-1.2c0.4,0,0.8,0.1,1.2,0.2s0.6,0.4,0.8,0.6s0.3,0.6,0.4,0.9
		c0,0.2,0.1,0.6,0.1,1.2v4.5h-1.2v-4.4c0-0.5,0-0.9-0.1-1.1s-0.3-0.4-0.5-0.6c-0.2-0.1-0.5-0.2-0.9-0.2c-0.5,0-1,0.2-1.4,0.5
		s-0.6,1-0.6,1.9v4L283.2,252.9L283.2,252.9z"/>
	<g>
		<g>
			<path class="st6" d="M173,172.5L306.6,64.3c34.1,42.2,45.9,91,34.6,144L173,172.5z"/>
		</g>
	</g>
	<g>
		<g>
			<path class="st7" d="M173,172.5V0.5c54.2,0,99.5,21.6,133.7,63.8L173,172.5z"/>
		</g>
	</g>
	<g>
		<path class="st2" d="M207.3,56.9l3.9-10h1.4l4.1,10h-1.5l-1.2-3h-4.2l-1.1,3H207.3z M210.2,52.8h3.4l-1.1-2.8
			c-0.3-0.8-0.6-1.5-0.7-2.1c-0.1,0.6-0.3,1.3-0.5,1.9L210.2,52.8z"/>
		<path class="st2" d="M222.3,54.2l1.2,0.2c-0.1,0.8-0.5,1.5-1,2s-1.2,0.7-2,0.7c-1,0-1.8-0.3-2.4-1s-0.9-1.6-0.9-2.8
			c0-0.8,0.1-1.5,0.4-2.1s0.7-1,1.2-1.3s1.1-0.4,1.7-0.4c0.8,0,1.4,0.2,1.9,0.6s0.8,1,1,1.7l-1.2,0.2c-0.1-0.5-0.3-0.8-0.6-1.1
			s-0.6-0.4-1.1-0.4c-0.6,0-1.1,0.2-1.5,0.7s-0.6,1.2-0.6,2.1c0,1,0.2,1.7,0.6,2.1s0.9,0.7,1.5,0.7c0.5,0,0.9-0.2,1.2-0.4
			S222.2,54.9,222.3,54.2z"/>
		<path class="st2" d="M227.3,55.8l0.2,1.1c-0.4,0.1-0.7,0.1-0.9,0.1c-0.4,0-0.8-0.1-1-0.2s-0.4-0.3-0.5-0.6s-0.1-0.7-0.1-1.5v-4.2
			h-0.9v-1h0.9v-1.8l1.2-0.7v2.5h1.2v1H226v4.2c0,0.3,0,0.6,0.1,0.7s0.1,0.2,0.2,0.2s0.2,0.1,0.4,0.1
			C226.9,55.9,227,55.8,227.3,55.8z"/>
		<path class="st2" d="M228.5,48.3v-1.4h1.2v1.4H228.5z M228.5,56.9v-7.3h1.2v7.3H228.5z"/>
		<path class="st2" d="M231.1,53.3c0-1.3,0.4-2.3,1.1-3c0.6-0.5,1.4-0.8,2.3-0.8c1,0,1.8,0.3,2.4,1c0.6,0.7,0.9,1.6,0.9,2.7
			c0,0.9-0.1,1.7-0.4,2.2c-0.3,0.5-0.7,1-1.2,1.2s-1.1,0.4-1.8,0.4c-1,0-1.8-0.3-2.5-1S231.1,54.5,231.1,53.3z M232.4,53.3
			c0,0.9,0.2,1.6,0.6,2.1s0.9,0.7,1.5,0.7s1.1-0.2,1.5-0.7s0.6-1.2,0.6-2.1c0-0.9-0.2-1.6-0.6-2s-0.9-0.7-1.5-0.7s-1.1,0.2-1.5,0.7
			S232.4,52.3,232.4,53.3z"/>
		<path class="st2" d="M239.4,56.9v-7.3h1.1v1c0.5-0.8,1.3-1.2,2.3-1.2c0.4,0,0.8,0.1,1.2,0.2c0.4,0.2,0.6,0.4,0.8,0.6
			s0.3,0.6,0.4,0.9c0.1,0.2,0.1,0.6,0.1,1.2v4.5H244v-4.4c0-0.5-0.1-0.9-0.1-1.1s-0.3-0.5-0.5-0.6c-0.2-0.2-0.5-0.2-0.9-0.2
			c-0.5,0-1,0.2-1.4,0.5s-0.6,1-0.6,1.9v4L239.4,56.9L239.4,56.9z"/>
		<path class="st2" d="M200.4,72.6v-7.3h1.1v1.1c0.3-0.5,0.5-0.8,0.8-1s0.5-0.2,0.8-0.2c0.4,0,0.8,0.1,1.3,0.4l-0.4,1.1
			c-0.3-0.2-0.6-0.3-0.9-0.3c-0.3,0-0.5,0.1-0.7,0.2s-0.4,0.4-0.5,0.7c-0.1,0.4-0.2,0.9-0.2,1.4v3.8L200.4,72.6L200.4,72.6z"/>
		<path class="st2" d="M210.1,70.2l1.3,0.2c-0.2,0.7-0.6,1.3-1.1,1.7s-1.2,0.6-2.1,0.6c-1.1,0-1.9-0.3-2.5-1s-0.9-1.6-0.9-2.8
			c0-1.2,0.3-2.2,0.9-2.8s1.4-1,2.4-1s1.8,0.3,2.4,1s0.9,1.6,0.9,2.8c0,0.1,0,0.2,0,0.3H206c0.1,0.8,0.3,1.4,0.7,1.8
			s0.9,0.6,1.5,0.6c0.4,0,0.8-0.1,1.2-0.4S209.9,70.8,210.1,70.2z M206.1,68.2h4.1c-0.1-0.6-0.2-1.1-0.5-1.4
			c-0.4-0.5-0.9-0.7-1.5-0.7s-1,0.2-1.4,0.6S206.1,67.6,206.1,68.2z"/>
		<path class="st2" d="M212.4,70.4l1.2-0.2c0.1,0.5,0.3,0.9,0.6,1.1s0.8,0.4,1.3,0.4s1-0.1,1.3-0.3s0.4-0.5,0.4-0.8
			s-0.1-0.5-0.4-0.7c-0.2-0.1-0.6-0.2-1.3-0.4c-0.9-0.2-1.5-0.4-1.9-0.6s-0.6-0.4-0.8-0.7s-0.3-0.6-0.3-1c0-0.3,0.1-0.6,0.2-0.9
			s0.4-0.5,0.6-0.7c0.2-0.1,0.4-0.3,0.8-0.4s0.7-0.2,1.1-0.2c0.6,0,1.1,0.1,1.5,0.2s0.8,0.4,0.9,0.7s0.4,0.7,0.4,1.1l-1.2,0.2
			c-0.1-0.4-0.2-0.7-0.5-0.9s-0.6-0.3-1.1-0.3c-0.6,0-1,0.1-1.2,0.3s-0.4,0.4-0.4,0.7c0,0.2,0.1,0.3,0.1,0.4
			c0.1,0.1,0.3,0.2,0.5,0.3c0.1,0.1,0.5,0.2,1.1,0.3c0.9,0.2,1.5,0.4,1.8,0.6s0.6,0.4,0.8,0.7s0.3,0.6,0.3,1.1
			c0,0.4-0.1,0.8-0.4,1.2s-0.6,0.6-1,0.8s-1,0.3-1.5,0.3c-0.9,0-1.7-0.2-2.2-0.6S212.6,71.2,212.4,70.4z"/>
		<path class="st2" d="M224.9,70.2l1.3,0.2c-0.2,0.7-0.6,1.3-1.1,1.7s-1.2,0.6-2.1,0.6c-1.1,0-1.9-0.3-2.5-1s-0.9-1.6-0.9-2.8
			c0-1.2,0.3-2.2,0.9-2.8s1.4-1,2.4-1s1.8,0.3,2.4,1s0.9,1.6,0.9,2.8c0,0.1,0,0.2,0,0.3h-5.4c0.1,0.8,0.3,1.4,0.7,1.8
			s0.9,0.6,1.5,0.6c0.4,0,0.8-0.1,1.2-0.4S224.7,70.8,224.9,70.2z M220.8,68.2h4.1c-0.1-0.6-0.2-1.1-0.5-1.4
			c-0.4-0.5-0.9-0.7-1.5-0.7s-1,0.2-1.4,0.6S220.9,67.6,220.8,68.2z"/>
		<path class="st2" d="M232.4,71.7c-0.5,0.4-0.9,0.7-1.3,0.8s-0.9,0.2-1.4,0.2c-0.8,0-1.4-0.2-1.8-0.6s-0.6-0.9-0.6-1.5
			c0-0.4,0.1-0.7,0.2-1s0.4-0.5,0.6-0.7s0.6-0.3,0.9-0.4c0.2-0.1,0.6-0.1,1.1-0.2c1-0.1,1.7-0.3,2.2-0.4c0-0.2,0-0.3,0-0.3
			c0-0.5-0.1-0.8-0.4-1.1c-0.3-0.3-0.8-0.4-1.4-0.4c-0.6,0-1,0.1-1.3,0.3s-0.5,0.6-0.6,1.1l-1.2-0.2c0.1-0.5,0.3-0.9,0.5-1.2
			s0.6-0.6,1.1-0.7s1-0.3,1.6-0.3s1.1,0.1,1.5,0.2s0.7,0.3,0.9,0.6s0.3,0.5,0.4,0.8c0,0.2,0.1,0.6,0.1,1.1v1.6c0,1.1,0,1.9,0.1,2.2
			s0.2,0.6,0.3,0.9h-1.3C232.5,72.3,232.5,72,232.4,71.7z M232.3,68.9c-0.4,0.2-1.1,0.3-2,0.5c-0.5,0.1-0.9,0.2-1.1,0.2
			s-0.4,0.2-0.5,0.4s-0.2,0.4-0.2,0.6c0,0.3,0.1,0.6,0.4,0.8s0.6,0.3,1.1,0.3s0.9-0.1,1.3-0.3s0.6-0.5,0.8-0.8
			c0.1-0.3,0.2-0.7,0.2-1.2V68.9L232.3,68.9z"/>
		<path class="st2" d="M235.5,72.6v-7.3h1.1v1.1c0.3-0.5,0.5-0.8,0.8-1s0.5-0.2,0.8-0.2c0.4,0,0.8,0.1,1.3,0.4l-0.4,1.1
			c-0.3-0.2-0.6-0.3-0.9-0.3c-0.3,0-0.5,0.1-0.7,0.2c-0.2,0.2-0.4,0.4-0.5,0.7c-0.1,0.4-0.2,0.9-0.2,1.4v3.8L235.5,72.6L235.5,72.6z
			"/>
		<path class="st2" d="M244.9,69.9l1.2,0.2c-0.1,0.8-0.5,1.5-1,2s-1.2,0.7-2,0.7c-1,0-1.8-0.3-2.4-1c-0.6-0.7-0.9-1.6-0.9-2.8
			c0-0.8,0.1-1.5,0.4-2.1s0.7-1,1.2-1.3s1.1-0.4,1.7-0.4c0.8,0,1.4,0.2,1.9,0.6s0.8,1,1,1.7l-1.2,0.2c-0.1-0.5-0.3-0.8-0.6-1.1
			c-0.3-0.2-0.6-0.4-1.1-0.4c-0.6,0-1.1,0.2-1.5,0.7s-0.6,1.1-0.6,2c0,1,0.2,1.7,0.6,2.1s0.9,0.7,1.5,0.7c0.5,0,0.9-0.2,1.2-0.4
			S244.8,70.5,244.9,69.9z"/>
		<path class="st2" d="M247.1,72.6v-10h1.2v3.6c0.6-0.7,1.3-1,2.2-1c0.5,0,1,0.1,1.4,0.3s0.7,0.5,0.9,0.9s0.3,0.9,0.3,1.6v4.6h-1.2
			V68c0-0.6-0.1-1.1-0.4-1.3c-0.3-0.3-0.6-0.4-1.1-0.4c-0.4,0-0.7,0.1-1,0.3c-0.3,0.2-0.6,0.4-0.7,0.8s-0.2,0.8-0.2,1.3v4
			L247.1,72.6L247.1,72.6z"/>
	</g>
	<circle class="st8" cx="173.3" cy="172.4" r="52"/>
	<g>
		<path class="st2" d="M144.3,167.3v-10h1.3v8.8h4.9v1.2H144.3L144.3,167.3z"/>
		<path class="st2" d="M152,158.7v-1.4h1.2v1.4H152z M152,167.3V160h1.2v7.3H152z"/>
		<path class="st2" d="M157.8,166.2l0.2,1.1c-0.4,0.1-0.7,0.1-0.9,0.1c-0.4,0-0.8-0.1-1-0.2s-0.4-0.3-0.5-0.6s-0.1-0.7-0.1-1.4V161
			h-0.9v-1h0.9v-1.8l1.2-0.7v2.5h1.2v1h-1.2v4.2c0,0.4,0,0.6,0.1,0.7s0.1,0.2,0.2,0.2s0.2,0.1,0.4,0.1
			C157.4,166.2,157.6,166.2,157.8,166.2z"/>
		<path class="st2" d="M164,165l1.3,0.2c-0.2,0.7-0.6,1.3-1.1,1.7s-1.2,0.6-2.1,0.6c-1.1,0-1.9-0.3-2.5-1s-0.9-1.6-0.9-2.8
			s0.3-2.2,0.9-2.8s1.4-1,2.4-1s1.8,0.3,2.4,1s0.9,1.6,0.9,2.8c0,0.1,0,0.2,0,0.3h-5.4c0.1,0.8,0.3,1.4,0.7,1.8s0.9,0.6,1.5,0.6
			c0.4,0,0.8-0.1,1.2-0.4S163.8,165.5,164,165z M159.9,163h4.1c-0.1-0.6-0.2-1.1-0.5-1.4c-0.4-0.5-0.9-0.7-1.5-0.7s-1,0.2-1.4,0.6
			S160,162.3,159.9,163z"/>
		<path class="st2" d="M166.8,167.3V160h1.1v1.1c0.3-0.5,0.5-0.9,0.8-1s0.5-0.2,0.8-0.2c0.4,0,0.8,0.1,1.3,0.4l-0.4,1.1
			c-0.3-0.2-0.6-0.3-0.9-0.3c-0.3,0-0.5,0.1-0.7,0.2s-0.4,0.4-0.5,0.7c-0.1,0.4-0.2,0.9-0.2,1.4v3.8L166.8,167.3L166.8,167.3z"/>
		<path class="st2" d="M176.2,166.4c-0.5,0.4-0.9,0.7-1.3,0.8s-0.9,0.2-1.4,0.2c-0.8,0-1.4-0.2-1.8-0.6s-0.6-0.9-0.6-1.5
			c0-0.4,0.1-0.7,0.2-1s0.4-0.5,0.6-0.7s0.6-0.3,0.9-0.4c0.2-0.1,0.6-0.1,1.1-0.2c1-0.1,1.7-0.3,2.2-0.4c0-0.2,0-0.3,0-0.3
			c0-0.5-0.1-0.9-0.4-1.1c-0.3-0.3-0.8-0.4-1.4-0.4c-0.6,0-1,0.1-1.3,0.3s-0.5,0.6-0.6,1.1l-1.2-0.2c0.1-0.5,0.3-0.9,0.5-1.2
			s0.6-0.6,1.1-0.7s1-0.3,1.6-0.3s1.1,0.1,1.5,0.2s0.7,0.3,0.9,0.6s0.3,0.5,0.4,0.8c0,0.2,0.1,0.6,0.1,1.1v1.6c0,1.1,0,1.9,0.1,2.2
			s0.2,0.6,0.3,0.9h-1.3C176.3,167,176.2,166.7,176.2,166.4z M176.1,163.6c-0.4,0.2-1.1,0.3-2,0.5c-0.5,0.1-0.9,0.1-1.1,0.2
			s-0.4,0.2-0.5,0.4s-0.2,0.4-0.2,0.6c0,0.3,0.1,0.6,0.4,0.8s0.6,0.3,1.1,0.3s0.9-0.1,1.3-0.3s0.6-0.5,0.8-0.9
			c0.1-0.3,0.2-0.7,0.2-1.2V163.6L176.1,163.6z"/>
		<path class="st2" d="M181.9,166.2l0.2,1.1c-0.4,0.1-0.7,0.1-0.9,0.1c-0.4,0-0.8-0.1-1-0.2s-0.4-0.3-0.5-0.6s-0.1-0.7-0.1-1.4V161
			h-0.9v-1h0.9v-1.8l1.2-0.7v2.5h1.2v1h-1.2v4.2c0,0.4,0,0.6,0.1,0.7s0.1,0.2,0.2,0.2s0.2,0.1,0.4,0.1
			C181.5,166.2,181.7,166.2,181.9,166.2z"/>
		<path class="st2" d="M187.9,167.3v-1.1c-0.6,0.8-1.3,1.2-2.3,1.2c-0.4,0-0.8-0.1-1.2-0.2s-0.6-0.4-0.8-0.6s-0.3-0.6-0.4-0.9
			c-0.1-0.2-0.1-0.6-0.1-1.1V160h1.2v4c0,0.6,0,1.1,0.1,1.3c0.1,0.3,0.2,0.6,0.5,0.8s0.6,0.3,0.9,0.3s0.7-0.1,1-0.3s0.6-0.4,0.7-0.8
			s0.2-0.8,0.2-1.4V160h1.2v7.3H187.9L187.9,167.3z"/>
		<path class="st2" d="M190.9,167.3V160h1.1v1.1c0.3-0.5,0.5-0.9,0.8-1s0.5-0.2,0.8-0.2c0.4,0,0.8,0.1,1.3,0.4l-0.4,1.1
			c-0.3-0.2-0.6-0.3-0.9-0.3c-0.3,0-0.5,0.1-0.7,0.2s-0.4,0.4-0.5,0.7c-0.1,0.4-0.2,0.9-0.2,1.4v3.8L190.9,167.3L190.9,167.3z"/>
		<path class="st2" d="M200.6,165l1.3,0.2c-0.2,0.7-0.6,1.3-1.1,1.7s-1.2,0.6-2.1,0.6c-1.1,0-1.9-0.3-2.5-1s-0.9-1.6-0.9-2.8
			s0.3-2.2,0.9-2.8s1.4-1,2.4-1s1.8,0.3,2.4,1s0.9,1.6,0.9,2.8c0,0.1,0,0.2,0,0.3h-5.4c0.1,0.8,0.3,1.4,0.7,1.8s0.9,0.6,1.5,0.6
			c0.4,0,0.8-0.1,1.2-0.4S200.4,165.5,200.6,165z M196.5,163h4.1c-0.1-0.6-0.2-1.1-0.5-1.4c-0.4-0.5-0.9-0.7-1.5-0.7s-1,0.2-1.4,0.6
			S196.6,162.3,196.5,163z"/>
		<path class="st2" d="M144.2,183v-7.3h1.1v1.1c0.3-0.5,0.5-0.9,0.8-1s0.5-0.2,0.8-0.2c0.4,0,0.8,0.1,1.3,0.4l-0.4,1.1
			c-0.3-0.2-0.6-0.3-0.9-0.3c-0.3,0-0.5,0.1-0.7,0.2s-0.4,0.4-0.5,0.7c-0.1,0.4-0.2,0.9-0.2,1.4v3.8L144.2,183L144.2,183z"/>
		<path class="st2" d="M153.9,180.6l1.3,0.2c-0.2,0.7-0.6,1.3-1.1,1.7s-1.2,0.6-2.1,0.6c-1.1,0-1.9-0.3-2.5-1s-0.9-1.6-0.9-2.8
			s0.3-2.2,0.9-2.8s1.4-1,2.4-1s1.8,0.3,2.4,1s0.9,1.6,0.9,2.8c0,0.1,0,0.2,0,0.3h-5.4c0.1,0.8,0.3,1.4,0.7,1.8s0.9,0.6,1.5,0.6
			c0.4,0,0.8-0.1,1.2-0.4S153.7,181.1,153.9,180.6z M149.8,178.6h4.1c-0.1-0.6-0.2-1.1-0.5-1.4c-0.4-0.5-0.9-0.7-1.5-0.7
			s-1,0.2-1.4,0.6S149.9,178,149.8,178.6z"/>
		<path class="st2" d="M158.7,183l-2.8-7.3h1.3l1.6,4.4c0.2,0.5,0.3,1,0.5,1.5c0.1-0.4,0.3-0.8,0.5-1.4l1.6-4.4h1.3l-2.8,7.3
			L158.7,183L158.7,183z"/>
		<path class="st2" d="M163.7,174.4V173h1.2v1.4H163.7z M163.7,183v-7.3h1.2v7.3H163.7z"/>
		<path class="st2" d="M171.8,180.6l1.3,0.2c-0.2,0.7-0.6,1.3-1.1,1.7s-1.2,0.6-2.1,0.6c-1.1,0-1.9-0.3-2.5-1s-0.9-1.6-0.9-2.8
			s0.3-2.2,0.9-2.8s1.4-1,2.4-1s1.8,0.3,2.4,1s0.9,1.6,0.9,2.8c0,0.1,0,0.2,0,0.3h-5.4c0.1,0.8,0.3,1.4,0.7,1.8s0.9,0.6,1.5,0.6
			c0.4,0,0.8-0.1,1.2-0.4S171.6,181.1,171.8,180.6z M167.7,178.6h4.1c-0.1-0.6-0.2-1.1-0.5-1.4c-0.4-0.5-0.9-0.7-1.5-0.7
			s-1,0.2-1.4,0.6S167.8,178,167.7,178.6z"/>
		<path class="st2" d="M175.9,183l-2.2-7.3h1.3l1.2,4.2l0.4,1.6c0-0.1,0.1-0.6,0.4-1.5l1.2-4.2h1.3l1.1,4.2l0.4,1.4l0.4-1.4l1.2-4.2
			h1.2l-2.3,7.3h-1.3l-1.2-4.4l-0.3-1.2l-1.5,5.6L175.9,183L175.9,183z"/>
		<path class="st2" d="M184.7,174.4V173h1.2v1.4H184.7z M184.7,183v-7.3h1.2v7.3H184.7z"/>
		<path class="st2" d="M187.8,183v-7.3h1.1v1c0.5-0.8,1.3-1.2,2.3-1.2c0.4,0,0.8,0.1,1.2,0.2s0.6,0.4,0.8,0.6s0.3,0.6,0.4,0.9
			c0.1,0.2,0.1,0.6,0.1,1.2v4.5h-1.2v-4.4c0-0.5-0.1-0.9-0.1-1.1s-0.3-0.4-0.5-0.6s-0.5-0.2-0.9-0.2c-0.5,0-1,0.2-1.4,0.5
			s-0.6,1-0.6,1.9v4L187.8,183L187.8,183z"/>
		<path class="st2" d="M195.4,183.6l1.2,0.2c0.1,0.4,0.2,0.6,0.4,0.8c0.3,0.2,0.7,0.3,1.2,0.3c0.6,0,1-0.1,1.3-0.3s0.5-0.6,0.6-1
			c0.1-0.2,0.1-0.8,0.1-1.6c-0.5,0.6-1.2,0.9-2,0.9c-1,0-1.8-0.4-2.3-1.1s-0.8-1.6-0.8-2.6c0-0.7,0.1-1.3,0.4-1.9s0.6-1,1.1-1.4
			s1-0.5,1.7-0.5c0.9,0,1.6,0.4,2.1,1v-0.9h1.1v6.3c0,1.1-0.1,1.9-0.4,2.4s-0.6,0.8-1.1,1.1s-1.1,0.4-1.8,0.4
			c-0.9,0-1.6-0.2-2.1-0.6S195.3,184.3,195.4,183.6z M196.4,179.2c0,0.9,0.2,1.6,0.6,2.1s0.9,0.7,1.4,0.7c0.6,0,1-0.2,1.4-0.6
			s0.6-1.1,0.6-2.1c0-0.9-0.2-1.6-0.6-2s-0.9-0.7-1.4-0.7c-0.6,0-1,0.2-1.4,0.7S196.4,178.3,196.4,179.2z"/>
	</g>
	<g class="st9">
		<path class="st2" d="M105,52.5l1.3,0.3c-0.3,1.1-0.8,1.9-1.5,2.5s-1.6,0.9-2.6,0.9c-1.1,0-2-0.2-2.6-0.7c-0.7-0.4-1.2-1.1-1.5-1.9
			s-0.5-1.7-0.5-2.7s0.2-2,0.6-2.7c0.4-0.8,1-1.4,1.7-1.8c0.7-0.4,1.5-0.6,2.4-0.6c1,0,1.8,0.3,2.5,0.8s1.2,1.2,1.4,2.2l-1.3,0.3
			c-0.2-0.7-0.6-1.3-1-1.6s-1-0.5-1.7-0.5c-0.8,0-1.4,0.2-1.9,0.6s-0.9,0.9-1.1,1.5s-0.3,1.3-0.3,1.9c0,0.9,0.1,1.6,0.4,2.2
			c0.2,0.6,0.6,1.1,1.2,1.4s1.1,0.5,1.7,0.5c0.7,0,1.4-0.2,1.9-0.6S104.8,53.4,105,52.5z"/>
		<path class="st2" d="M107.8,56v-7.3h1.1v1.1c0.3-0.5,0.5-0.9,0.8-1s0.5-0.2,0.8-0.2c0.4,0,0.8,0.1,1.3,0.4l-0.4,1.1
			c-0.3-0.2-0.6-0.3-0.9-0.3s-0.5,0.1-0.7,0.2c-0.2,0.2-0.4,0.4-0.5,0.7c-0.1,0.4-0.2,0.9-0.2,1.4V56H107.8z"/>
		<path class="st2" d="M112.5,47.4V46h1.2v1.4H112.5z M112.5,56v-7.3h1.2V56H112.5z"/>
		<path class="st2" d="M118.3,54.9l0.2,1.1c-0.3,0.1-0.7,0.1-0.9,0.1c-0.4,0-0.8-0.1-1-0.2s-0.4-0.3-0.5-0.6
			c-0.1-0.2-0.2-0.7-0.2-1.5v-4.2H115v-1h0.9V47l1.2-0.7v2.5h1.2v1H117V54c0,0.4,0,0.6,0.1,0.7c0,0.1,0.1,0.2,0.2,0.2
			c0.1,0.1,0.2,0.1,0.4,0.1S118.1,55,118.3,54.9z"/>
		<path class="st2" d="M119.5,47.4V46h1.2v1.4H119.5z M119.5,56v-7.3h1.2V56H119.5z"/>
		<path class="st2" d="M127.3,53.4l1.2,0.2c-0.1,0.8-0.5,1.5-1,2s-1.2,0.7-2,0.7c-1,0-1.8-0.3-2.4-1c-0.6-0.6-0.9-1.6-0.9-2.8
			c0-0.8,0.1-1.5,0.4-2.1s0.7-1,1.2-1.3s1.1-0.4,1.7-0.4c0.8,0,1.4,0.2,1.9,0.6c0.5,0.4,0.8,1,1,1.7l-1.2,0.2
			c-0.1-0.5-0.3-0.9-0.6-1.1c-0.3-0.2-0.6-0.4-1-0.4c-0.6,0-1.1,0.2-1.5,0.7c-0.4,0.4-0.6,1.1-0.6,2.1s0.2,1.7,0.6,2.1
			s0.9,0.7,1.5,0.7c0.5,0,0.9-0.1,1.2-0.4S127.2,54,127.3,53.4z"/>
		<path class="st2" d="M134.3,55.1c-0.5,0.4-0.9,0.7-1.3,0.8c-0.4,0.2-0.9,0.2-1.4,0.2c-0.8,0-1.4-0.2-1.8-0.6
			c-0.4-0.4-0.6-0.9-0.6-1.5c0-0.4,0.1-0.7,0.2-1c0.2-0.3,0.4-0.5,0.6-0.7c0.3-0.2,0.6-0.3,0.9-0.4c0.2-0.1,0.6-0.1,1.1-0.2
			c1-0.1,1.7-0.3,2.2-0.4c0-0.2,0-0.3,0-0.3c0-0.5-0.1-0.9-0.3-1.1c-0.3-0.3-0.8-0.4-1.4-0.4c-0.6,0-1,0.1-1.3,0.3s-0.5,0.6-0.6,1.1
			l-1.2-0.2c0.1-0.5,0.3-0.9,0.5-1.2c0.3-0.3,0.6-0.6,1.1-0.7c0.5-0.2,1-0.3,1.6-0.3s1.1,0.1,1.5,0.2s0.7,0.3,0.9,0.6
			c0.2,0.2,0.3,0.5,0.4,0.8c0,0.2,0.1,0.6,0.1,1.1V53c0,1.1,0,1.9,0.1,2.2s0.2,0.6,0.3,0.9h-1.3C134.5,55.8,134.4,55.5,134.3,55.1z
			 M134.2,52.4c-0.4,0.2-1.1,0.3-2,0.5c-0.5,0.1-0.9,0.2-1.1,0.2s-0.4,0.2-0.5,0.4s-0.2,0.4-0.2,0.6c0,0.3,0.1,0.6,0.4,0.8
			c0.2,0.2,0.6,0.3,1.1,0.3s0.9-0.1,1.3-0.3c0.4-0.2,0.6-0.5,0.8-0.9c0.1-0.3,0.2-0.7,0.2-1.2V52.4z"/>
		<path class="st2" d="M137.4,56V46h1.2v10H137.4z"/>
	</g>
	<path class="st2" d="M98.1,63.1v-1.4h1.2v1.4H98.1z M98.1,71.7v-7.3h1.2v7.3H98.1z"/>
	<path class="st2" d="M100.7,69.6l1.2-0.2c0.1,0.5,0.3,0.9,0.6,1.1c0.3,0.3,0.7,0.4,1.3,0.4c0.6,0,1-0.1,1.3-0.3
		c0.3-0.2,0.4-0.5,0.4-0.8s-0.1-0.5-0.4-0.7c-0.2-0.1-0.6-0.2-1.3-0.4c-0.9-0.2-1.5-0.4-1.9-0.6c-0.3-0.2-0.6-0.4-0.8-0.7
		c-0.2-0.3-0.3-0.6-0.3-1c0-0.3,0.1-0.6,0.2-0.9s0.3-0.5,0.6-0.7c0.2-0.1,0.5-0.3,0.8-0.4s0.7-0.1,1.1-0.1c0.6,0,1.1,0.1,1.5,0.2
		c0.4,0.2,0.7,0.4,1,0.7c0.2,0.3,0.3,0.7,0.4,1.1l-1.2,0.2c-0.1-0.4-0.2-0.7-0.5-0.9c-0.3-0.2-0.6-0.3-1.1-0.3c-0.6,0-1,0.1-1.2,0.3
		c-0.2,0.2-0.4,0.4-0.4,0.7c0,0.2,0,0.3,0.2,0.4c0.1,0.1,0.3,0.2,0.5,0.3c0.1,0,0.5,0.2,1.1,0.3c0.9,0.2,1.5,0.4,1.8,0.6
		c0.3,0.1,0.6,0.4,0.8,0.6s0.3,0.6,0.3,1.1c0,0.4-0.1,0.8-0.4,1.2c-0.2,0.4-0.6,0.6-1,0.8c-0.5,0.2-1,0.3-1.5,0.3
		c-0.9,0-1.7-0.2-2.2-0.6C101.2,70.9,100.9,70.3,100.7,69.6z"/>
	<path class="st2" d="M113,69.1l1.2,0.2c-0.1,0.8-0.5,1.5-1,2s-1.2,0.7-2,0.7c-1,0-1.8-0.3-2.4-1c-0.6-0.6-0.9-1.6-0.9-2.8
		c0-0.8,0.1-1.5,0.4-2.1s0.7-1,1.2-1.3s1.1-0.4,1.7-0.4c0.8,0,1.4,0.2,1.9,0.6s0.8,1,1,1.7l-1.2,0.2c-0.1-0.5-0.3-0.9-0.6-1.1
		c-0.3-0.2-0.6-0.4-1-0.4c-0.6,0-1.1,0.2-1.5,0.7c-0.4,0.4-0.6,1.1-0.6,2.1s0.2,1.7,0.6,2.1s0.9,0.7,1.5,0.7c0.5,0,0.9-0.1,1.2-0.4
		S112.9,69.7,113,69.1z"/>
	<path class="st2" d="M114.8,68.1c0-1.3,0.4-2.3,1.1-3c0.6-0.5,1.4-0.8,2.3-0.8c1,0,1.8,0.3,2.4,1s1,1.6,1,2.7
		c0,0.9-0.1,1.7-0.4,2.2s-0.7,1-1.2,1.2c-0.5,0.3-1.1,0.4-1.8,0.4c-1,0-1.8-0.3-2.5-1C115.1,70.3,114.8,69.3,114.8,68.1z M116,68.1
		c0,0.9,0.2,1.6,0.6,2.1s0.9,0.7,1.5,0.7s1.1-0.2,1.5-0.7s0.6-1.2,0.6-2.1s-0.2-1.6-0.6-2c-0.4-0.5-0.9-0.7-1.5-0.7
		s-1.1,0.2-1.5,0.7S116,67.2,116,68.1z"/>
	<path class="st2" d="M127.8,71.7v-1.1c-0.6,0.8-1.3,1.2-2.3,1.2c-0.4,0-0.8-0.1-1.2-0.2c-0.4-0.2-0.6-0.4-0.8-0.6
		c-0.2-0.2-0.3-0.6-0.4-0.9c0-0.2-0.1-0.6-0.1-1.1v-4.5h1.2v4c0,0.6,0,1.1,0.1,1.3c0.1,0.3,0.2,0.6,0.5,0.8c0.3,0.2,0.6,0.3,0.9,0.3
		s0.7-0.1,1-0.3c0.3-0.2,0.6-0.4,0.7-0.8c0.1-0.3,0.2-0.8,0.2-1.4v-3.9h1.2v7.3h-1V71.7z"/>
	<path class="st2" d="M130.8,71.7v-7.3h1.1v1.1c0.3-0.5,0.5-0.9,0.8-1c0.2-0.2,0.5-0.2,0.8-0.2c0.4,0,0.8,0.1,1.3,0.4l-0.4,1.1
		c-0.3-0.2-0.6-0.3-0.9-0.3c-0.3,0-0.5,0.1-0.7,0.2c-0.2,0.2-0.4,0.4-0.5,0.7c-0.1,0.4-0.2,0.9-0.2,1.4v3.8h-1.3V71.7z"/>
	<path class="st2" d="M135,69.6l1.2-0.2c0.1,0.5,0.3,0.9,0.6,1.1c0.3,0.3,0.7,0.4,1.3,0.4s1-0.1,1.3-0.3c0.3-0.2,0.4-0.5,0.4-0.8
		s-0.1-0.5-0.4-0.7c-0.2-0.1-0.6-0.2-1.3-0.4c-0.9-0.2-1.5-0.4-1.9-0.6c-0.3-0.2-0.6-0.4-0.8-0.7c-0.2-0.3-0.3-0.6-0.3-1
		c0-0.3,0.1-0.6,0.2-0.9c0.1-0.3,0.4-0.5,0.6-0.7c0.2-0.1,0.5-0.3,0.8-0.4s0.7-0.1,1.1-0.1c0.6,0,1.1,0.1,1.5,0.2
		c0.4,0.2,0.7,0.4,1,0.7c0.2,0.3,0.3,0.7,0.4,1.1l-1.2,0.2c-0.1-0.4-0.2-0.7-0.5-0.9c-0.3-0.2-0.6-0.3-1.1-0.3c-0.6,0-1,0.1-1.2,0.3
		s-0.4,0.4-0.4,0.7c0,0.2,0,0.3,0.2,0.4c0.1,0.1,0.3,0.2,0.5,0.3c0.1,0,0.5,0.2,1.1,0.3c0.9,0.2,1.5,0.4,1.8,0.6
		c0.3,0.1,0.6,0.4,0.8,0.6s0.3,0.6,0.3,1.1c0,0.4-0.1,0.8-0.4,1.2c-0.2,0.4-0.6,0.6-1,0.8c-0.5,0.2-1,0.3-1.5,0.3
		c-0.9,0-1.7-0.2-2.2-0.6C135.4,70.9,135.1,70.3,135,69.6z"/>
	<path class="st2" d="M147.4,69.4l1.3,0.2c-0.2,0.7-0.6,1.3-1.1,1.7s-1.2,0.6-2.1,0.6c-1.1,0-1.9-0.3-2.5-1s-0.9-1.6-0.9-2.8
		c0-1.2,0.3-2.2,0.9-2.8s1.4-1,2.4-1s1.8,0.3,2.4,1s0.9,1.6,0.9,2.8c0,0.1,0,0.2,0,0.3h-5.4c0,0.8,0.3,1.4,0.7,1.8s0.9,0.6,1.5,0.6
		c0.5,0,0.8-0.1,1.2-0.4S147.3,69.9,147.4,69.4z M143.4,67.4h4.1c-0.1-0.6-0.2-1.1-0.5-1.4c-0.4-0.5-0.9-0.7-1.5-0.7s-1,0.2-1.4,0.6
		C143.7,66.3,143.4,66.8,143.4,67.4z"/>
	<path class="st2" d="M102.4,87.4v-7.3h1.1v1c0.5-0.8,1.3-1.2,2.3-1.2c0.4,0,0.8,0.1,1.2,0.2c0.4,0.2,0.6,0.4,0.8,0.6
		c0.2,0.3,0.3,0.6,0.4,0.9c0,0.2,0.1,0.6,0.1,1.2v4.5H107v-4.4c0-0.5,0-0.9-0.1-1.1s-0.3-0.4-0.5-0.6c-0.2-0.1-0.5-0.2-0.9-0.2
		c-0.5,0-1,0.2-1.4,0.5s-0.6,1-0.6,1.9v4H102.4z"/>
	<path class="st2" d="M114.9,86.4c-0.5,0.4-0.9,0.7-1.3,0.8c-0.4,0.2-0.9,0.2-1.4,0.2c-0.8,0-1.4-0.2-1.8-0.6s-0.6-0.9-0.6-1.5
		c0-0.4,0.1-0.7,0.2-1c0.2-0.3,0.4-0.5,0.6-0.7c0.3-0.2,0.6-0.3,0.9-0.4c0.2-0.1,0.6-0.1,1.1-0.2c1-0.1,1.7-0.3,2.2-0.4
		c0-0.2,0-0.3,0-0.3c0-0.5-0.1-0.9-0.3-1.1c-0.3-0.3-0.8-0.4-1.4-0.4s-1,0.1-1.3,0.3c-0.3,0.2-0.5,0.6-0.6,1.1L110,82
		c0.1-0.5,0.3-0.9,0.5-1.2c0.3-0.3,0.6-0.6,1.1-0.7c0.5-0.2,1-0.3,1.6-0.3s1.1,0.1,1.5,0.2s0.7,0.3,0.9,0.6c0.2,0.2,0.3,0.5,0.4,0.8
		c0,0.2,0.1,0.6,0.1,1.1v1.6c0,1.1,0,1.9,0.1,2.2c0.1,0.3,0.2,0.6,0.3,0.9h-1.3C115,87.1,114.9,86.8,114.9,86.4z M114.8,83.7
		c-0.4,0.2-1.1,0.3-2,0.5c-0.5,0.1-0.9,0.2-1.1,0.2s-0.4,0.2-0.5,0.4c-0.1,0.2-0.2,0.4-0.2,0.6c0,0.3,0.1,0.6,0.4,0.8
		c0.2,0.2,0.6,0.3,1.1,0.3s0.9-0.1,1.3-0.3c0.4-0.2,0.6-0.5,0.8-0.9c0.1-0.3,0.2-0.7,0.2-1.2C114.8,84.1,114.8,83.7,114.8,83.7z"/>
	<path class="st2" d="M117.9,87.3v-10h1.2v10H117.9z"/>
	<path class="st2" d="M121,90.1l-0.1-1.2c0.3,0.1,0.5,0.1,0.7,0.1c0.3,0,0.5,0,0.7-0.1s0.3-0.2,0.4-0.4c0.1-0.1,0.2-0.4,0.4-0.9
		c0-0.1,0.1-0.2,0.1-0.3l-2.8-7.3h1.3l1.5,4.2c0.2,0.5,0.4,1.1,0.5,1.7c0.1-0.6,0.3-1.1,0.5-1.7l1.6-4.2h1.2l-2.8,7.4
		c-0.3,0.8-0.5,1.3-0.7,1.6c-0.2,0.4-0.5,0.7-0.8,0.9c-0.3,0.2-0.6,0.3-1,0.3C121.5,90.3,121.3,90.2,121,90.1z"/>
	<path class="st2" d="M127.5,85.2l1.2-0.2c0.1,0.5,0.3,0.9,0.6,1.1c0.3,0.3,0.7,0.4,1.3,0.4s1-0.1,1.3-0.3c0.3-0.2,0.4-0.5,0.4-0.8
		s-0.1-0.5-0.4-0.7c-0.2-0.1-0.6-0.2-1.3-0.4c-0.9-0.2-1.5-0.4-1.9-0.6c-0.3-0.2-0.6-0.4-0.8-0.7c-0.2-0.3-0.3-0.6-0.3-1
		c0-0.3,0.1-0.6,0.2-0.9s0.4-0.5,0.6-0.7c0.2-0.1,0.5-0.3,0.8-0.4s0.7-0.1,1.1-0.1c0.6,0,1.1,0.1,1.5,0.2c0.4,0.2,0.7,0.4,1,0.7
		c0.2,0.3,0.3,0.7,0.4,1.1l-1.2,0.2c-0.1-0.4-0.2-0.7-0.5-0.9c-0.3-0.2-0.6-0.3-1.1-0.3c-0.6,0-1,0.1-1.2,0.3s-0.4,0.4-0.4,0.7
		c0,0.2,0,0.3,0.2,0.4c0.1,0.1,0.3,0.2,0.5,0.3c0.1,0,0.5,0.2,1.1,0.3c0.9,0.2,1.5,0.4,1.8,0.6c0.3,0.1,0.6,0.4,0.8,0.6
		s0.3,0.6,0.3,1.1c0,0.4-0.1,0.8-0.4,1.2c-0.2,0.4-0.6,0.6-1,0.8c-0.5,0.2-1,0.3-1.5,0.3c-0.9,0-1.7-0.2-2.2-0.6
		C128,86.5,127.7,85.9,127.5,85.2z"/>
	<path class="st2" d="M135,78.7v-1.4h1.2v1.4H135z M135,87.3V80h1.2v7.3H135z"/>
	<path class="st2" d="M137.7,85.2l1.2-0.2c0.1,0.5,0.3,0.9,0.6,1.1c0.3,0.3,0.7,0.4,1.3,0.4s1-0.1,1.3-0.3c0.3-0.2,0.4-0.5,0.4-0.8
		s-0.1-0.5-0.4-0.7c-0.2-0.1-0.6-0.2-1.3-0.4c-0.9-0.2-1.5-0.4-1.9-0.6c-0.3-0.2-0.6-0.4-0.8-0.7c-0.2-0.3-0.3-0.6-0.3-1
		c0-0.3,0.1-0.6,0.2-0.9c0.1-0.3,0.4-0.5,0.6-0.7c0.2-0.1,0.5-0.3,0.8-0.4s0.7-0.1,1.1-0.1c0.6,0,1.1,0.1,1.5,0.2
		c0.4,0.2,0.7,0.4,1,0.7c0.2,0.3,0.3,0.7,0.4,1.1l-1.2,0.2c-0.1-0.4-0.2-0.7-0.5-0.9c-0.3-0.2-0.6-0.3-1.1-0.3c-0.6,0-1,0.1-1.2,0.3
		s-0.4,0.4-0.4,0.7c0,0.2,0,0.3,0.2,0.4c0.1,0.1,0.3,0.2,0.5,0.3c0.1,0,0.5,0.2,1.1,0.3c0.9,0.2,1.5,0.4,1.8,0.6
		c0.3,0.1,0.6,0.4,0.8,0.6s0.3,0.6,0.3,1.1c0,0.4-0.1,0.8-0.4,1.2c-0.2,0.4-0.6,0.6-1,0.8c-0.5,0.2-1,0.3-1.5,0.3
		c-0.9,0-1.7-0.2-2.2-0.6C138.1,86.5,137.8,85.9,137.7,85.2z"/>
	<g id="Isolation_Mode_3_">
		<g class="st9">
			<path class="st2" d="M281,138.1l1.3,0.3c-0.3,1.1-0.8,1.9-1.5,2.5s-1.6,0.9-2.6,0.9c-1.1,0-2-0.2-2.6-0.7
				c-0.7-0.4-1.2-1.1-1.5-1.9c-0.4-0.8-0.5-1.7-0.5-2.7s0.2-2,0.6-2.7c0.4-0.8,1-1.4,1.7-1.8c0.7-0.4,1.5-0.6,2.4-0.6
				c1,0,1.8,0.3,2.5,0.8s1.2,1.2,1.4,2.2l-1.3,0.3c-0.2-0.7-0.6-1.3-1-1.6s-1-0.5-1.7-0.5c-0.8,0-1.4,0.2-1.9,0.6
				c-0.5,0.4-0.9,0.9-1.1,1.5s-0.3,1.3-0.3,1.9c0,0.9,0.1,1.6,0.4,2.2c0.2,0.6,0.6,1.1,1.2,1.4c0.5,0.3,1.1,0.5,1.7,0.5
				c0.7,0,1.4-0.2,1.9-0.6C280.5,139.6,280.8,138.9,281,138.1z"/>
			<path class="st2" d="M288.5,140.7c-0.5,0.4-0.9,0.7-1.3,0.8c-0.4,0.2-0.9,0.2-1.4,0.2c-0.8,0-1.4-0.2-1.8-0.6
				c-0.4-0.4-0.6-0.9-0.6-1.5c0-0.4,0.1-0.7,0.2-1c0.2-0.3,0.4-0.5,0.6-0.7c0.3-0.2,0.6-0.3,0.9-0.4c0.2-0.1,0.6-0.1,1.1-0.2
				c1-0.1,1.7-0.3,2.2-0.4c0-0.2,0-0.3,0-0.3c0-0.5-0.1-0.9-0.3-1.1c-0.3-0.3-0.8-0.4-1.4-0.4s-1,0.1-1.3,0.3s-0.5,0.6-0.6,1.1
				l-1.2-0.2c0.1-0.5,0.3-0.9,0.5-1.2c0.3-0.3,0.6-0.6,1.1-0.7c0.5-0.2,1-0.3,1.6-0.3s1.1,0.1,1.5,0.2c0.4,0.1,0.7,0.3,0.9,0.6
				c0.2,0.2,0.3,0.5,0.4,0.8c0,0.2,0.1,0.6,0.1,1.1v1.6c0,1.1,0,1.9,0.1,2.2s0.2,0.6,0.3,0.9h-1.3
				C288.7,141.4,288.6,141.1,288.5,140.7z M288.4,138c-0.4,0.2-1.1,0.3-2,0.5c-0.5,0.1-0.9,0.2-1.1,0.2c-0.2,0.1-0.4,0.2-0.5,0.4
				s-0.2,0.4-0.2,0.6c0,0.3,0.1,0.6,0.4,0.8c0.2,0.2,0.6,0.3,1.1,0.3s0.9-0.1,1.3-0.3s0.6-0.5,0.8-0.9c0.1-0.3,0.2-0.7,0.2-1.2
				L288.4,138L288.4,138z"/>
			<path class="st2" d="M291.1,139.4l1.2-0.2c0.1,0.5,0.3,0.9,0.6,1.1c0.3,0.3,0.7,0.4,1.3,0.4c0.6,0,1-0.1,1.3-0.3s0.4-0.5,0.4-0.8
				s-0.1-0.5-0.4-0.7c-0.2-0.1-0.6-0.2-1.3-0.4c-0.9-0.2-1.5-0.4-1.9-0.6c-0.3-0.2-0.6-0.4-0.8-0.7c-0.2-0.3-0.3-0.6-0.3-1
				c0-0.3,0.1-0.6,0.2-0.9c0.1-0.3,0.4-0.5,0.6-0.7c0.2-0.1,0.5-0.3,0.8-0.4c0.3-0.1,0.7-0.1,1.1-0.1c0.6,0,1.1,0.1,1.5,0.2
				c0.4,0.2,0.7,0.4,1,0.7c0.2,0.3,0.3,0.7,0.4,1.1l-1.2,0.2c-0.1-0.4-0.2-0.7-0.5-0.9s-0.6-0.3-1.1-0.3c-0.6,0-1,0.1-1.2,0.3
				s-0.4,0.4-0.4,0.7c0,0.2,0,0.3,0.2,0.4c0.1,0.1,0.3,0.2,0.5,0.3c0.1,0,0.5,0.2,1.1,0.3c0.9,0.2,1.5,0.4,1.8,0.6
				c0.3,0.1,0.6,0.4,0.8,0.6s0.3,0.6,0.3,1.1c0,0.4-0.1,0.8-0.4,1.2c-0.2,0.4-0.6,0.6-1,0.8c-0.5,0.2-1,0.3-1.5,0.3
				c-0.9,0-1.7-0.2-2.2-0.6C291.5,140.8,291.2,140.2,291.1,139.4z"/>
			<path class="st2" d="M303.5,139.3l1.3,0.2c-0.2,0.7-0.6,1.3-1.1,1.7s-1.2,0.6-2.1,0.6c-1.1,0-1.9-0.3-2.5-1s-0.9-1.6-0.9-2.8
				s0.3-2.2,0.9-2.8s1.4-1,2.4-1s1.8,0.3,2.4,1s0.9,1.6,0.9,2.8c0,0.1,0,0.2,0,0.3h-5.4c0,0.8,0.3,1.4,0.7,1.8s0.9,0.6,1.5,0.6
				c0.5,0,0.8-0.1,1.2-0.4S303.4,139.8,303.5,139.3z M299.5,137.3h4.1c-0.1-0.6-0.2-1.1-0.5-1.4c-0.4-0.5-0.9-0.7-1.5-0.7
				s-1,0.2-1.4,0.6C299.8,136.1,299.6,136.7,299.5,137.3z"/>
		</g>
		<g class="st9">
			<path class="st2" d="M272.8,155.1l1.2-0.2c0.1,0.5,0.3,0.9,0.6,1.1c0.3,0.3,0.7,0.4,1.3,0.4c0.6,0,1-0.1,1.3-0.3s0.4-0.5,0.4-0.8
				s-0.1-0.5-0.4-0.7c-0.2-0.1-0.6-0.2-1.3-0.4c-0.9-0.2-1.5-0.4-1.9-0.6c-0.3-0.2-0.6-0.4-0.8-0.7c-0.2-0.3-0.3-0.6-0.3-1
				c0-0.3,0.1-0.6,0.2-0.9c0.1-0.3,0.3-0.5,0.6-0.7c0.2-0.1,0.5-0.3,0.8-0.4c0.3-0.1,0.7-0.1,1.1-0.1c0.6,0,1.1,0.1,1.5,0.2
				s0.7,0.4,1,0.7c0.2,0.3,0.3,0.7,0.4,1.1l-1.2,0.2c-0.1-0.4-0.2-0.7-0.5-0.9s-0.6-0.3-1.1-0.3c-0.6,0-1,0.1-1.2,0.3
				s-0.4,0.4-0.4,0.7c0,0.2,0.1,0.3,0.2,0.4c0.1,0.1,0.3,0.2,0.5,0.3c0.1,0,0.5,0.2,1.1,0.3c0.9,0.2,1.5,0.4,1.8,0.6
				c0.3,0.1,0.6,0.4,0.8,0.6c0.2,0.3,0.3,0.6,0.3,1.1c0,0.4-0.1,0.8-0.4,1.2c-0.2,0.4-0.6,0.6-1,0.8c-0.5,0.2-1,0.3-1.5,0.3
				c-0.9,0-1.7-0.2-2.2-0.6C273.3,156.5,272.9,155.9,272.8,155.1z"/>
			<path class="st2" d="M283,156.2l0.2,1.1c-0.3,0.1-0.7,0.1-0.9,0.1c-0.4,0-0.8-0.1-1-0.2s-0.4-0.3-0.5-0.6
				c-0.1-0.2-0.2-0.7-0.2-1.5V151h-0.9v-1h0.9v-1.8l1.2-0.7v2.5h1.2v1h-1.2v4.2c0,0.4,0,0.6,0.1,0.7c0,0.1,0.1,0.2,0.2,0.2
				c0.1,0.1,0.2,0.1,0.4,0.1C282.6,156.3,282.8,156.2,283,156.2z"/>
			<path class="st2" d="M288.9,157.3v-1.1c-0.6,0.8-1.3,1.2-2.3,1.2c-0.4,0-0.8-0.1-1.2-0.2c-0.4-0.2-0.6-0.4-0.8-0.6
				c-0.2-0.2-0.3-0.6-0.4-0.9c0-0.2-0.1-0.6-0.1-1.1v-4.5h1.2v4c0,0.6,0,1.1,0.1,1.3c0.1,0.3,0.2,0.6,0.5,0.8s0.6,0.3,0.9,0.3
				s0.7-0.1,1-0.3s0.6-0.4,0.7-0.8c0.1-0.3,0.2-0.8,0.2-1.4v-3.9h1.2v7.3h-1V157.3z"/>
			<path class="st2" d="M296.7,157.3v-0.9c-0.5,0.7-1.1,1.1-2,1.1c-0.6,0-1.1-0.2-1.6-0.5s-0.9-0.8-1.1-1.3c-0.3-0.6-0.4-1.2-0.4-2
				c0-0.7,0.1-1.4,0.4-2c0.2-0.6,0.6-1,1.1-1.4s1-0.5,1.6-0.5c0.4,0,0.8,0.1,1.2,0.3c0.3,0.2,0.6,0.4,0.8,0.7v-3.6h1.2v10
				L296.7,157.3L296.7,157.3z M292.8,153.7c0,0.9,0.2,1.6,0.6,2.1s0.9,0.7,1.4,0.7s1-0.2,1.4-0.7c0.4-0.4,0.6-1.1,0.6-2
				c0-1-0.2-1.7-0.6-2.2s-0.9-0.7-1.4-0.7s-1,0.2-1.4,0.7C293,152,292.8,152.7,292.8,153.7z"/>
			<path class="st2" d="M299.7,160.1l-0.1-1.2c0.3,0.1,0.5,0.1,0.7,0.1c0.3,0,0.5,0,0.7-0.1s0.3-0.2,0.4-0.4
				c0.1-0.1,0.2-0.4,0.4-0.9c0-0.1,0.1-0.2,0.1-0.3l-2.8-7.3h1.3l1.5,4.2c0.2,0.5,0.4,1.1,0.5,1.7c0.1-0.6,0.3-1.1,0.5-1.7l1.6-4.2
				h1.2l-2.8,7.4c-0.3,0.8-0.5,1.3-0.7,1.6c-0.2,0.4-0.5,0.7-0.8,0.9s-0.6,0.3-1,0.3C300.3,160.3,300,160.2,299.7,160.1z"/>
		</g>
	</g>
	<path class="st2" d="M95.2,71.8v-0.9c-0.5,0.7-1.1,1.1-2,1.1c-0.6,0-1.1-0.2-1.6-0.5s-0.9-0.8-1.1-1.3c-0.3-0.6-0.4-1.2-0.4-2
		c0-0.7,0.1-1.4,0.4-2s0.6-1,1.1-1.4s1-0.5,1.6-0.5c0.4,0,0.8,0.1,1.2,0.3s0.6,0.4,0.8,0.7v-3.6h1.2v10L95.2,71.8L95.2,71.8z
		 M91.3,68.2c0,0.9,0.2,1.6,0.6,2.1s0.9,0.7,1.4,0.7s1-0.2,1.4-0.7c0.4-0.4,0.6-1.1,0.6-2c0-1-0.2-1.7-0.6-2.2s-0.9-0.7-1.4-0.7
		c-0.6,0-1,0.2-1.4,0.7C91.5,66.5,91.3,67.2,91.3,68.2z"/>
	<path class="st2" d="M99.1,86.4c-0.5,0.4-0.9,0.7-1.3,0.8c-0.4,0.2-0.9,0.2-1.4,0.2c-0.8,0-1.4-0.2-1.8-0.6S94,85.9,94,85.3
		c0-0.4,0.1-0.7,0.2-1c0.2-0.3,0.4-0.5,0.6-0.7c0.3-0.2,0.6-0.3,0.9-0.4c0.2-0.1,0.6-0.1,1.1-0.2c1-0.1,1.7-0.3,2.2-0.4
		c0-0.2,0-0.3,0-0.3c0-0.5-0.1-0.9-0.3-1.1c-0.3-0.3-0.8-0.4-1.4-0.4s-1,0.1-1.3,0.3c-0.3,0.2-0.5,0.6-0.6,1.1L94.2,82
		c0.1-0.5,0.3-0.9,0.5-1.2c0.3-0.3,0.6-0.6,1.1-0.7c0.5-0.2,1-0.3,1.6-0.3s1.1,0.1,1.5,0.2s0.7,0.3,0.9,0.6c0.2,0.2,0.3,0.5,0.4,0.8
		c0,0.2,0.1,0.6,0.1,1.1v1.6c0,1.1,0,1.9,0.1,2.2c0.1,0.3,0.2,0.6,0.3,0.9h-1.3C99.2,87.1,99.1,86.8,99.1,86.4z M99,83.7
		c-0.4,0.2-1.1,0.3-2,0.5c-0.5,0.1-0.9,0.2-1.1,0.2s-0.4,0.2-0.5,0.4c-0.1,0.2-0.2,0.4-0.2,0.6c0,0.3,0.1,0.6,0.4,0.8
		c0.2,0.2,0.6,0.3,1.1,0.3s0.9-0.1,1.3-0.3c0.4-0.2,0.6-0.5,0.8-0.9c0.1-0.3,0.2-0.7,0.2-1.2C99,84.1,99,83.7,99,83.7z"/>
</g>
</svg>
